<?xml version="1.0" encoding="utf-8"?>
<!-- Generator: Adobe Illustrator 24.0.1, SVG Export Plug-In . SVG Version: 6.00 Build 0)  -->
<svg version="1.1" id="Layer_1" xmlns="http://www.w3.org/2000/svg" xmlns:xlink="http://www.w3.org/1999/xlink" x="0px" y="0px"
	 viewBox="0 0 236 100" style="enable-background:new 0 0 236 100;" xml:space="preserve">
<style type="text/css">
	.st0{opacity:0.2;}
	.st1{fill:none;stroke:#FFFFFF;stroke-width:3;stroke-miterlimit:10;}
	.st2{fill:#FFFFFF;}
</style>
<g>
	<g class="st0">
		<g>
			<g>
				<defs>
					<rect id="SVGID_1_" x="12.3" width="225.6" height="106"/>
				</defs>
				<clipPath id="SVGID_2_">
					<use xlink:href="#SVGID_1_"  style="overflow:visible;"/>
				</clipPath>
			</g>
		</g>
	</g>
	<path class="st1" d="M182.4,6.1H70h-8.2H18.4v44.4c0,24.6,19.9,44.4,44.4,44.4c0.3,0,0.7,0,0.9,0l0,0h118.7
		c24.6,0,44.4-19.9,44.4-44.4C226.9,26,207,6.1,182.4,6.1z"/>
	<path class="st2" d="M60.8,26.3L60.8,26.3c-0.7,0-1.3,0.3-1.5,0.9L45.5,58.6l-0.9,2.3h3.6l0.3-0.8L60.7,32L73,60l0.3,1h3.6
		L62.2,27.3C62,26.7,61.4,26.3,60.8,26.3"/>
	<path class="st2" d="M93.1,41.9c-4.5-1.7-9.2-3.4-9.2-6.1c0-3.4,3.8-6.2,8.3-6.2c4.6,0,8.3,2.8,8.3,6.2v1.6h3.2v-1.6
		c0-5.2-5.2-9.5-11.6-9.5c-6.4,0-11.6,4.3-11.6,9.5c0,5,5.9,7.2,11.6,9.4c4.5,1.7,9.3,3.5,9.3,6.3c0,3.3-4.3,6.2-9.3,6.2
		c-5,0-9.3-2.8-9.3-6.2v-1.6h-3.2v1.6c0,5.2,5.6,9.5,12.5,9.5c6.8,0,12.5-4.3,12.5-9.5C104.7,46.3,98.8,44.1,93.1,41.9"/>
	<path class="st2" d="M125,27.2c-0.3-0.6-0.8-0.9-1.4-0.9h-0.1c-0.7,0-1.2,0.3-1.4,0.9l-13.8,31.4l-0.9,2.3h3.6l0.3-0.8L123.5,32
		l12.3,28l0.3,1h3.6L125,27.2z"/>
	<path class="st2" d="M51.4,74.1c-0.8,0.4-1.6,0.7-2.4,0.7c-1.3,0-2.3-0.4-3.2-1.3c-0.9-0.9-1.4-2-1.4-3.2c0-1.2,0.5-2.2,1.4-3
		s2-1.2,3.2-1.2c0.5,0,0.9,0,1.2,0.1c0.3,0.1,0.7,0.3,1.1,0.4l-0.9,1c-0.3-0.2-0.8-0.3-1.6-0.3c-0.8,0-1.4,0.3-2.1,0.9
		c-0.6,0.6-0.9,1.3-0.9,2c0,0.9,0.3,1.6,0.9,2.2c0.6,0.6,1.3,0.9,2.1,0.9c0.7,0,1.3-0.2,1.6-0.4L51.4,74.1z"/>
	<polygon class="st2" points="65.8,74.6 61.8,74.6 61.8,66.3 63.2,66.3 63.2,73.3 65.8,73.3 	"/>
	<rect x="76.3" y="66.3" class="st2" width="1.4" height="8.4"/>
	<polygon class="st2" points="94.7,74.7 89.9,69.9 89.9,74.7 88.3,74.7 88.3,65.9 93.1,70.8 93.1,66.2 94.7,66.2 	"/>
	<rect x="105.2" y="66.3" class="st2" width="1.4" height="8.4"/>
	<path class="st2" d="M123.9,74.1c-0.8,0.4-1.6,0.7-2.4,0.7c-1.3,0-2.3-0.4-3.2-1.3s-1.4-2-1.4-3.2c0-1.2,0.5-2.2,1.4-3
		c0.9-0.8,2-1.2,3.2-1.2c0.5,0,0.9,0,1.2,0.1s0.7,0.3,1.1,0.4l-0.9,1c-0.3-0.2-0.8-0.3-1.6-0.3c-0.8,0-1.4,0.3-2.1,0.9
		c-0.6,0.6-0.9,1.3-0.9,2c0,0.9,0.3,1.6,0.9,2.2c0.6,0.6,1.3,0.9,2.1,0.9c0.7,0,1.3-0.2,1.6-0.4L123.9,74.1z"/>
	<path class="st2" d="M139.8,72.1c0,0.8-0.3,1.4-0.9,1.9c-0.6,0.5-1.2,0.8-2,0.8c-0.8,0-1.4-0.3-2-0.7c-0.3-0.3-0.7-0.7-1-0.9
		l0.9-0.9c0.6,0.7,1.3,1.1,2,1.2c0.4,0,0.7-0.2,0.9-0.4c0.3-0.3,0.3-0.6,0.3-0.9c0-0.4-0.3-0.9-1-1.1c-0.6-0.3-1.2-0.6-1.8-0.9
		c-0.7-0.4-1-1-1-1.8c0-0.7,0.3-1.2,0.9-1.6c0.5-0.3,1.1-0.6,1.8-0.6c1,0,1.8,0.3,2.3,0.9l-0.9,1c-0.5-0.3-0.9-0.5-1.4-0.5
		c-0.3,0-0.5,0.1-0.8,0.3c-0.3,0.2-0.4,0.4-0.4,0.7c0,0.3,0.2,0.6,0.6,0.9c0.1,0,0.3,0.2,1,0.3c0.4,0.2,0.8,0.3,1.1,0.6
		c0.4,0.3,0.7,0.6,0.9,0.9c0.1,0.1,0.1,0.3,0.2,0.6C139.8,71.7,139.8,71.9,139.8,72.1"/>
	<path class="st2" d="M173.6,61.8c-3.6-2.8-5.7-7-5.7-11.5c0-5.8,3.4-11,8.8-13.4c0.6-0.3,1-0.9,1-1.5c0-0.9-0.8-1.6-1.6-1.6
		c-0.3,0-0.4,0.1-0.6,0.1l0,0c-6.6,2.8-10.8,9.3-10.8,16.5c0,5.5,2.6,10.7,7,14.2c3.2,2.5,5.2,6.2,5.6,10.5
		c-11.5-2.5-20-12.7-20-24.6c0-12,8.5-22.4,20.3-24.7c0.9-0.1,1.4-0.8,1.4-1.6c0-0.9-0.8-1.6-1.6-1.6c-0.1,0-0.2,0-0.3,0l0,0l0,0
		c0,0,0,0-0.1,0c-13.4,2.6-23,14.3-23,28c0,14.2,10.7,26.4,24.7,28.3l1.8,0.3l0.1-1.9c0-0.2,0-0.3,0-0.5
		C180.6,70.5,178,65.2,173.6,61.8"/>
	<path class="st2" d="M191.4,61.8c3.6-2.8,5.7-7,5.7-11.5c0-5.8-3.4-11-8.8-13.4c-0.6-0.3-1-0.9-1-1.5c0-0.9,0.8-1.6,1.6-1.6
		c0.3,0,0.4,0.1,0.6,0.1l0,0c6.6,2.8,10.8,9.3,10.8,16.5c0,5.5-2.6,10.7-7,14.2c-3.2,2.5-5.2,6.2-5.6,10.5c11.5-2.5,20-12.7,20-24.6
		c0-12-8.5-22.4-20.3-24.7c-0.9-0.1-1.4-0.8-1.4-1.6c0-0.9,0.8-1.6,1.6-1.6c0.1,0,0.2,0,0.3,0l0,0l0,0c0,0,0,0,0.1,0
		c13.4,2.6,23,14.3,23,28c0,14.2-10.7,26.4-24.7,28.3l-1.8,0.3l-0.1-1.9c0-0.2,0-0.3,0-0.5C184.4,70.5,187,65.2,191.4,61.8"/>
	<path class="st2" d="M189.2,46.6L189.2,46.6c-3.6-6.1-5.1-7.9-6.5-21.1c-0.1-0.9-0.3-1.9-0.3-2.6c0,0.9-0.1,1.7-0.3,2.6
		c-1.4,13-2.8,14.9-6.5,21.1l0,0c-0.7,1.2-1.1,2.5-1.1,3.9c0,0.1,0,0.2,0,0.2c0.1,4.2,3.5,7.6,7.8,7.6c4.3,0,7.7-3.3,7.8-7.6
		c0-0.1,0-0.2,0-0.2C190.2,49.1,189.9,47.8,189.2,46.6 M182.4,54.8c-2.4,0-4.3-2-4.3-4.3c0-2.4,2-4.3,4.3-4.3s4.3,2,4.3,4.3
		C186.8,52.9,184.8,54.8,182.4,54.8"/>
</g>
</svg>
