<?xml version="1.0" encoding="utf-8"?>
<!-- Generator: Adobe Illustrator 24.0.1, SVG Export Plug-In . SVG Version: 6.00 Build 0)  -->
<svg version="1.1" baseProfile="basic" id="Layer_1"
	 xmlns="http://www.w3.org/2000/svg" xmlns:xlink="http://www.w3.org/1999/xlink" x="0px" y="0px" viewBox="0 0 236 100"
	 xml:space="preserve">
<style type="text/css">
	.st0{fill:#61482F;}
	.st1{fill:#FFFFFF;}
	.st2{fill:#50B748;}
	.st3{fill:#C9DA2A;}
</style>
<path class="st0" d="M185.1,0.1H59h-9.2H1V50c0,27.5,22.3,49.9,49.9,49.9c0.4,0,0.7,0,1.1,0v0h133.1c27.5,0,49.9-22.3,49.9-49.9
	S212.6,0.1,185.1,0.1"/>
<path class="st1" d="M48.5,22.7L48.5,22.7c-0.8,0-1.4,0.4-1.7,1.1L31.4,58.9l-1.1,2.5h4.1l0.3-0.9L48.5,29l13.8,31.4l0.4,1.1h4.1
	L50.2,23.7C49.9,23.1,49.3,22.7,48.5,22.7"/>
<path class="st1" d="M84.7,40.2c-5.1-1.9-10.3-3.9-10.3-6.9c0-3.8,4.2-7,9.3-7c5.1,0,9.3,3.1,9.3,7v1.8h3.6v-1.8
	c0-5.9-5.8-10.6-13-10.6c-7.2,0-13,4.8-13,10.6c0,5.7,6.6,8.2,13,10.5c5.1,1.9,10.4,3.9,10.4,7.1c0,3.7-4.9,7-10.4,7
	c-5.7,0-10.4-3.2-10.4-7V49h-3.6v1.8c0,5.9,6.3,10.6,14.1,10.6c7.6,0,14.1-4.9,14.1-10.6C97.8,45.1,91.2,42.6,84.7,40.2"/>
<path class="st1" d="M120.6,23.7c-0.3-0.6-0.9-1-1.6-1.1h-0.1c-0.7,0-1.4,0.4-1.6,1.1l-15.5,35.2l-1.1,2.5h4.1l0.3-0.9L118.9,29
	l13.8,31.4l0.4,1.1h4.1L120.6,23.7z"/>
<path class="st1" d="M38.1,76.3c-0.9,0.5-1.8,0.7-2.7,0.7c-1.4,0-2.6-0.5-3.6-1.5c-1-1-1.5-2.2-1.5-3.5c0-1.3,0.5-2.5,1.6-3.4
	c1-0.9,2.2-1.4,3.5-1.4c0.5,0,1,0,1.4,0.1c0.3,0.1,0.8,0.3,1.3,0.5l-0.9,1.1c-0.3-0.2-0.9-0.3-1.8-0.3c-0.9,0-1.7,0.3-2.4,1
	c-0.7,0.7-1,1.4-1,2.3c0,1,0.3,1.8,1,2.5c0.7,0.7,1.5,1,2.4,1c0.8,0,1.4-0.2,1.8-0.5L38.1,76.3z"/>
<polygon class="st1" points="54.1,76.9 49.6,76.9 49.6,67.5 51.3,67.5 51.3,75.4 54.1,75.4 "/>
<rect x="65.9" y="67.5" class="st1" width="1.7" height="9.4"/>
<polygon class="st1" points="86.6,77 81.1,71.6 81.1,77 79.3,77 79.3,67.2 84.7,72.6 84.7,67.4 86.6,67.4 "/>
<rect x="98.3" y="67.5" class="st1" width="1.7" height="9.4"/>
<path class="st1" d="M119.3,76.3c-0.9,0.5-1.8,0.7-2.7,0.7c-1.4,0-2.6-0.5-3.6-1.5c-1-1-1.5-2.2-1.5-3.5c0-1.3,0.5-2.5,1.6-3.4
	c1-0.9,2.2-1.4,3.5-1.4c0.5,0,1,0,1.4,0.1c0.3,0.1,0.8,0.3,1.3,0.5l-0.9,1.1c-0.3-0.2-0.9-0.3-1.8-0.3c-0.9,0-1.7,0.3-2.4,1
	c-0.7,0.7-1,1.4-1,2.3c0,1,0.3,1.8,1,2.5c0.7,0.7,1.5,1,2.4,1c0.8,0,1.4-0.2,1.8-0.5L119.3,76.3z"/>
<path class="st1" d="M137.1,74.1c0,0.8-0.3,1.5-1,2.1c-0.6,0.6-1.4,0.9-2.2,0.9c-0.9,0-1.6-0.3-2.2-0.8c-0.4-0.4-0.8-0.7-1.1-1.1
	l1.1-1.1c0.6,0.8,1.4,1.2,2.3,1.4c0.4,0,0.8-0.1,1.1-0.4c0.3-0.3,0.4-0.7,0.4-1.1c0-0.5-0.4-0.9-1.1-1.3c-0.7-0.3-1.4-0.6-2.1-0.9
	c-0.7-0.5-1.1-1.1-1.1-2c0-0.8,0.3-1.4,1-1.8c0.6-0.4,1.3-0.6,2-0.6c1.1,0,2,0.3,2.6,1l-1,1.1c-0.5-0.4-1.1-0.6-1.7-0.6
	c-0.3,0-0.6,0.1-0.8,0.3c-0.3,0.2-0.4,0.4-0.4,0.7c0,0.4,0.2,0.7,0.7,0.9c0.1,0,0.4,0.2,1.1,0.4c0.4,0.2,0.9,0.4,1.3,0.7
	c0.5,0.3,0.8,0.7,0.9,1c0.1,0.1,0.1,0.3,0.2,0.6C137.1,73.7,137.1,73.9,137.1,74.1"/>
<path class="st2" d="M175.1,62.5c-4-3.1-6.4-7.8-6.4-13c0-6.5,3.9-12.4,9.8-15c0.7-0.3,1.2-0.9,1.2-1.7c0-1-0.8-1.9-1.9-1.9
	c-0.3,0-0.5,0.1-0.7,0.1l0,0c-7.4,3.2-12.1,10.4-12.1,18.4c0,6.3,2.8,12.1,7.8,15.9c3.6,2.8,5.9,7,6.3,11.8
	c-12.9-2.7-22.4-14.3-22.4-27.7c0-13.5,9.6-25.1,22.8-27.8c0.9-0.1,1.6-0.9,1.6-1.8c0-1-0.8-1.9-1.9-1.9c-0.1,0-0.2,0-0.3,0l0,0
	c0,0,0,0,0,0c0,0,0,0-0.1,0c-15,2.9-25.9,16.1-25.9,31.4c0,16,11.9,29.6,27.8,31.7l2,0.3l0.1-2.1c0-0.2,0-0.4,0-0.5
	C182.9,72.4,180.1,66.4,175.1,62.5"/>
<path class="st2" d="M195,62.5c4-3.1,6.4-7.8,6.4-13c0-6.5-3.9-12.4-9.8-15c-0.7-0.3-1.2-0.9-1.2-1.7c0-1,0.8-1.9,1.9-1.9
	c0.3,0,0.5,0.1,0.7,0.1l0,0c7.4,3.2,12.1,10.4,12.1,18.4c0,6.3-2.8,12.1-7.8,15.9c-3.6,2.8-5.9,7-6.3,11.8
	c12.9-2.7,22.4-14.3,22.4-27.7c0-13.5-9.6-25.1-22.8-27.8c-0.9-0.1-1.6-0.9-1.6-1.8c0-1,0.8-1.9,1.9-1.9c0.1,0,0.2,0,0.3,0l0,0
	c0,0,0,0,0,0c0,0,0,0,0.1,0c15,2.9,25.9,16.1,25.9,31.4c0,16-11.9,29.6-27.8,31.7l-2,0.3l-0.1-2.1c0-0.2,0-0.4,0-0.5
	C187.2,72.4,190,66.4,195,62.5"/>
<path class="st3" d="M192.5,45.5L192.5,45.5c-4-6.9-5.7-8.9-7.2-23.6c-0.1-1-0.2-2.1-0.2-3c0,0.9-0.1,2-0.2,3
	c-1.5,14.7-3.2,16.8-7.3,23.6l0,0c-0.8,1.3-1.2,2.8-1.2,4.4c0,0.1,0,0.2,0,0.2c0.1,4.7,4,8.5,8.7,8.5c4.7,0,8.6-3.8,8.7-8.5
	c0-0.1,0-0.2,0-0.2C193.8,48.3,193.3,46.8,192.5,45.5 M185,54.7c-2.7,0-4.8-2.2-4.8-4.8c0-2.7,2.2-4.8,4.8-4.8
	c2.7,0,4.8,2.2,4.8,4.8C189.9,52.5,187.7,54.7,185,54.7"/>
</svg>
