<?xml version="1.0" encoding="utf-8"?>
<!-- Generator: Adobe Illustrator 24.0.1, SVG Export Plug-In . SVG Version: 6.00 Build 0)  -->
<svg version="1.1" id="Layer_1" xmlns="http://www.w3.org/2000/svg" xmlns:xlink="http://www.w3.org/1999/xlink" x="0px" y="0px"
	 viewBox="0 0 64 64" style="enable-background:new 0 0 64 64;" xml:space="preserve">
<style type="text/css">
	.st0{fill:#FFFFFF;}
</style>
<g id="Layer_21">
	<path class="st0" d="M39.4,40.9c3.4-1.8,5.9-4.9,7-8.6c0.8-2.6-7.4,0.4-8-7.8c0.1-2.6,1.6-4.9,4-6c0.3-0.2,0.4-0.6,0.3-1
		c-3-4.9-6.3-9.6-10-14C31.4,0.7,17,21.2,16.9,28.2c0,5.3,3,10.1,7.6,12.7C12.6,42.1,13.4,61,25.6,61h12.8
		C50.6,61,51.4,42.1,39.4,40.9z M36.6,25.9c0.3,1.4,0.9,2.7,1.8,3.8L33,34.9v-5.5L36.6,25.9z M33,40.8v-3.1l6.8-6.6
		c1.3,1,2.7,1.6,4.3,1.8C42.2,37.4,37.9,40.4,33,40.8z M18.9,28.2c0-6.1,10.2-19,13.1-22.6c3,3.7,5.9,7.6,8.5,11.7
		c-2.1,1.3-3.5,3.4-3.9,5.9L33,26.6v-6.3l4.4-4.2c0.4-0.4,0.3-1-0.1-1.4c-0.4-0.3-0.9-0.3-1.3,0l-4.7,4.5c-0.5,0.4-0.2,2.3-0.3,2.9
		l-3-2.9c-0.4-0.4-1.1-0.3-1.4,0.1c-0.3,0.4-0.3,0.9,0,1.3l4.4,4.3v6.3l-6.1-5.9c-0.4-0.4-1.1-0.3-1.4,0.1c-0.3,0.4-0.3,0.9,0,1.3
		l7.5,7.3v5.5L23.3,32c-0.4-0.4-1-0.4-1.4,0c-0.4,0.4-0.4,1,0,1.4l0,0l7.3,7.1C23.3,39.3,19,34.2,18.9,28.2z M46,51.3
		C45.7,62,32.5,58.4,25.6,59c-10.3-0.2-10.3-16,0-16.2C32.9,43.3,46.3,39.7,46,51.3z"/>
	<path class="st0" d="M31.4,45.7c-7.4-3.9-12.1,7-5.4,10.5C32.9,59.1,37,49.5,31.4,45.7z M31.2,53c-3.4,5.1-8.1-1.5-5.1-5.2
		C29.6,44.5,33,49.7,31.2,53z"/>
	<path class="st0" d="M40,55h-1.7c6-3.7,0.3-8.3-2.5-4.3c-0.6,1,0.5,2.3,1.4,1.4c0.2-0.3,0.3-0.6,0.4-0.9c0.2-0.4,0.6-0.5,1-0.3
		c0.2,0.1,0.4,0.4,0.4,0.6c-0.1,1.5-5.8,4.1-2.3,5.3h3.4c0.5,0,0.9-0.4,0.9-0.9S40.7,55,40.2,55C40.1,55,40.1,55,40,55z"/>
</g>
</svg>
