<?xml version="1.0" encoding="utf-8"?>
<!-- Generator: Adobe Illustrator 25.4.0, SVG Export Plug-In . SVG Version: 6.00 Build 0)  -->
<svg version="1.1" id="Layer_1" xmlns="http://www.w3.org/2000/svg" xmlns:xlink="http://www.w3.org/1999/xlink" x="0px" y="0px"
	 viewBox="0 0 1000 1000" style="enable-background:new 0 0 1000 1000;" xml:space="preserve">
<style type="text/css">
	.st0{fill:#FFFFFF;}
</style>
<g id="OZu7WS_00000098197421814960236020000016469978416888229002_">
	<g>
		<path class="st0" d="M480.49,889.82c-101.11-1.8-194.79-37.52-275.3-106.6C121.69,711.57,69.27,621.31,48.47,513.05
			c-2.45-12.75-3.74-25.73-5.43-38.63c-0.2-1.54-0.83-3.8,1.43-4.52c1.6-0.51,2.68,1.04,3.78,1.99
			c31.62,27.21,69.99,40.42,109.03,51.85c53,15.52,107.35,24.13,162.14,30.36c69.03,7.86,138.31,10.64,207.67,8.51
			c96.51-2.97,192.32-12.32,285.68-38.78c34.3-9.72,67.77-21.71,97.29-42.47c4.49-3.16,8.46-7.04,12.72-10.52
			c1.46-1.2,2.68-3.67,4.94-2.48c2.08,1.09,1.32,3.61,1.2,5.49c-1.19,20.26-3.77,40.37-7.92,60.23
			c-18.81,90.13-61.14,167.55-127.53,231.24c-69.91,67.06-153.12,107.39-249.37,120.29C524.73,888.21,505.28,889.59,480.49,889.82z
			 M456.75,647.42c-0.02,0-0.03,0-0.05,0c0,7.76-0.26,15.53,0.08,23.28c0.28,6.38-1.96,9.02-8.63,8.82
			c-12.76-0.38-25.53-0.27-38.3-0.05c-13.07,0.23-21.63,8.73-21.93,21.72c-0.23,9.76-0.15,19.53-0.04,29.29
			c0.17,14.89,8.48,23.24,23.34,23.38c12.52,0.12,25.04,0.23,37.55-0.05c5.84-0.13,8.09,2.12,8,7.9
			c-0.21,12.51-0.16,25.03-0.01,37.55c0.18,15.18,8.61,23.45,23.95,23.63c8.26,0.09,16.52,0.06,24.78,0.01
			c17.12-0.1,25.72-8.75,25.87-26.06c0.09-10.76,0-21.53,0.03-32.29c0.02-10.57,0.05-10.62,10.28-10.65
			c12.52-0.04,25.04,0.14,37.55-0.07c13.05-0.22,22.59-10.86,21.24-23.74c-1.16-11-1.21-21.95-0.17-32.95
			c1.17-12.44-10.55-25.18-23.16-25.28c-12.77-0.1-25.54-0.16-38.3,0.02c-5.45,0.08-7.6-2.05-7.5-7.56
			c0.23-12.51,0.23-25.04-0.01-37.55c-0.26-13.5-8.74-23.19-21.18-23.76c-10.74-0.49-21.54-0.47-32.28,0
			c-12.51,0.54-20.71,9.32-21.05,21.89C456.59,632.39,456.75,639.91,456.75,647.42z"/>
		<path class="st0" d="M513.78,505.09c-9.27,0-18.55-0.35-27.79,0.12c-6.41,0.33-9.29-2.22-11.25-8.2
			c-15.72-48.06-31.71-96.03-47.67-144.01C400.12,272,373.09,191.03,346.2,110c-7.22-21.74,1.94-42.53,22.09-51.06
			c18.75-7.93,39.54-0.45,50.78,18.64c19.44,33.01,38.67,66.15,57.99,99.23c51.4,88,102.77,176.01,154.23,263.97
			c8.89,15.19,17.51,30.34,18.7,48.55c0.36,5.49-1.07,7.69-6.6,8.26C600.29,502.01,557.08,504.31,513.78,505.09z"/>
		<path class="st0" d="M210.16,375.19c-12.02,8.74-24.23,16.06-35.44,24.9c-12.82,10.12-24.82,21.11-35.04,33.86
			c-4.02,5.02-6.35,3.63-8.32-1.28c-2.76-6.91-1.56-13.22,3.29-18.88c4.79-5.59,10.73-9.72,16.9-13.6c3.87-2.44,6.99-5.5,3.77-10.42
			c-3.09-4.71-7.13-3.71-11.12-1.17c-8.05,5.12-15.91,10.42-21.63,18.34c-9.19,12.7-8.97,26.41,1.09,38.67
			c11.51,14.03,27.2,21.99,43.5,28.61c41.59,16.91,85.38,25.16,129.56,31.49c56.31,8.07,112.96,11.67,169.84,12.73
			c60.4,1.13,120.59-1.39,180.64-7.77c52.36-5.56,104.22-13.71,154.33-30.61c9.74-3.28,19.29-7.03,28.41-11.81
			c3.99-2.09,7.77-4.69,5.11-9.89c-2.68-5.24-6.95-4.53-11.54-2.23c-22.1,11.05-45.72,17.67-69.63,23.33
			c-2.05,0.49-4.66,2.07-6.35-0.02c-1.63-2.02,0.5-4.19,1.09-6.28c4.47-15.95,11.96-27.74,30.71-30.55
			c11.92-1.79,22.78-8.88,33.33-15.19c4.91-2.94,9.59-3.88,15.55-3.28c28.83,2.92,55.92-2.73,79.96-19.5
			c5.35-3.73,7.99-2.64,11.57,1.92c13.36,17,12.9,33.83-2.17,50.04c-15.9,17.11-36.32,27.32-57.35,36.31
			c-46.6,19.91-95.7,30.82-145.42,39.13c-49.41,8.26-99.19,12.89-149.24,15.44c-48.31,2.46-96.61,2.93-144.89,0.88
			c-87.71-3.73-174.71-13-259.47-37.33c-27.25-7.82-53.83-17.45-78.59-31.55c-11.38-6.48-21.93-14.02-30.78-23.79
			c-13.9-15.35-14.71-31.8-2.02-48.2c8.91-11.51,20.77-19.49,33.28-26.51c12.68-7.12,25.9-13.13,39.51-18.29
			c2.89-1.09,5.73-1.92,8.76-0.94c23.98,7.79,48.63,11.66,73.77,12.69C206.81,374.51,208.48,374.93,210.16,375.19z"/>
		<path class="st0" d="M781.88,347.34c-1.65-5.1-0.78-9.61-0.63-14.03c1.1-32.52-2.43-64.48-11.41-95.79
			c-0.83-2.89-1.67-5.78-2.77-8.57c-1.56-3.98-3.86-7.57-8.88-5.7c-4.5,1.67-5.41,5.28-4.01,9.85c4.39,14.37,7.95,28.95,10.27,43.82
			c3.95,25.36,4.75,50.79,2.17,76.34c-0.54,5.39-2.6,5.96-6.57,2.74c-43.14-34.95-72.26-78.26-78.3-134.57
			c-5.75-53.56,9.67-102.47,34.91-148.92c1.88-3.46,3.6-6.1,7.7-1.98c36.66,36.78,67.86,77.17,82.97,127.81
			c14.76,49.48,8.7,96.55-18.26,140.73C787.32,341.95,786.08,345.41,781.88,347.34z"/>
		<path class="st0" d="M491.28,944.13c-54.64,0.48-107.61-3.99-159.39-18.43c-16.18-4.51-31.97-10.14-46.18-19.48
			c-9.67-6.36-15.7-14.2-14.41-26.69c0.82-7.93,0.1-16.01,0.17-24.02c0.08-8.25,0.68-8.63,7.82-4.83
			c31.07,16.54,63.5,29.78,97.64,38.33c112.16,28.06,219.45,14.17,322.05-38.4c8.83-4.52,9.12-4.39,9.16,5.84
			c0.03,8.51-0.48,17.06,0.13,25.53c0.74,10.27-3.94,17.19-11.85,22.69c-16.52,11.5-35.31,17.73-54.48,22.72
			C592.19,940.34,541.45,944.74,491.28,944.13z"/>
		<path class="st0" d="M590.72,314.94c38.96,2.5,77.76,6.62,116.35,12.6c3.56,0.55,6.42,2.03,8.93,4.9
			c12.69,14.57,26.43,28.1,42.13,39.45c4,2.89,5.17,5.9,4.27,10.76c-6.32,34.2-17.67,66.71-32.25,98.18c-1.39,3-3.59,4.47-6.83,5.13
			c-17.42,3.57-35.03,5.91-52.61,8.44c-4.77,0.68-6.73-1.33-7.1-6.15c-1.27-16.54-7.06-31.54-15.48-45.8
			c-23.54-39.89-46.78-79.95-70.05-120c-1.3-2.24-4.32-4.63-2.58-7.31c1.77-2.71,5.08-0.58,7.72-0.53
			C585.72,314.66,588.22,314.83,590.72,314.94z M620.52,337.88c-1.7,0-3.95-0.01-6.19,0c-4.22,0.01-7.8,1.44-7.77,6.15
			c0.02,4.3,2.98,6.57,7.35,6.95c30.35,2.66,60.6,6.19,90.7,11c4.46,0.71,8.5-0.25,9.37-5.07c0.94-5.23-2.64-7.44-7.45-8.28
			C678.21,343.73,649.67,340.62,620.52,337.88z"/>
		<path class="st0" d="M841.15,409.74c7.03-5.46,13.07-10.17,19.12-14.86c15.84-12.3,30.48-25.94,44.79-39.94
			c1.07-1.05,2.03-2.22,3.06-3.3c3.41-3.57,5.81-7.65,1.42-11.69c-4.03-3.71-7.72-1.17-11.07,2.06
			c-8.29,7.98-16.61,15.93-25.1,23.69c-12.2,11.15-25.11,21.45-38.59,31.01c-1.95,1.38-4.09,4.37-6.34,3.1
			c-2.79-1.57-1.04-5.09-0.61-7.57c6.15-35.42,23.7-63.35,54.73-82.21c21.79-13.24,45.61-20.15,70.87-22.59
			c4.09-0.4,6.63,0.14,5.5,4.95c-8.28,35.35-20.63,68.66-48.83,93.54c-18.54,16.36-40.52,24.33-65.16,25.11
			C844.26,411.05,843.57,410.59,841.15,409.74z"/>
		<path class="st0" d="M348.52,393.47c2.16-1.35,4.07-0.33,5.9,0.16c21.86,5.87,44.06,9.27,66.73,8.83
			c5.58-0.11,8.65,1.76,10.44,7.27c9.52,29.27,19.25,58.47,29.13,87.62c1.93,5.7,0.72,7.9-5.42,7.57
			c-11.49-0.62-22.99-0.99-34.49-1.4c-3.36-0.12-5.67-1.37-6.75-4.77c-12.73-39.97-35.08-73.93-64.69-103.35
			C348.9,394.96,348.8,394.15,348.52,393.47z"/>
		<path class="st0" d="M168.84,201.13c17.53,10.06,32.7,22.56,46.16,37.09c23.23,25.08,40.74,53.77,52.93,85.69
			c1.18,3.09,3.56,6.34-0.32,9.48c-3.74,3.03-6.5,0.76-9.32-1.37c-43.1-32.48-72.46-74.8-89.93-125.62
			C167.88,205.02,167.21,203.57,168.84,201.13z"/>
		<path class="st0" d="M212.42,360.76c-39.6-0.52-77.22-9.43-112.78-26.91c-2.17-1.07-5.77-1.71-5.63-4.29
			c0.2-3.57,4.26-2.73,6.68-3.24c52.47-10.93,102.25-1.48,150.4,20.11c2.69,1.21,4.76,2.68,4.21,6.16
			c-0.59,3.67-2.99,4.76-6.29,5.21C236.87,359.45,224.72,360.94,212.42,360.76z"/>
		<path class="st0" d="M393.86,501.97c-3.99,0.41-7.24-1.3-10.27-3.72c-36.55-29.19-64.37-64.93-81.77-108.56
			c-1.43-3.6-1.79-6.43,1.77-9.22c3.66-2.86,6.03-0.66,8.59,1.31c36.81,28.32,66.04,62.61,83.5,106.15
			c1.02,2.55,1.85,5.19,2.82,7.76C400.17,500.15,399.02,502.51,393.86,501.97z"/>
		<path class="st0" d="M310.64,164.85c2.75,8.63,3.27,17.11,4.06,25.52c4.24,45.63-1.12,89.91-18.96,132.38
			c-1.1,2.63-1.73,6.03-5.89,5.67c-4.7-0.41-5.29-4.04-5.78-7.53c-3.86-27.66-4.29-55.3,0.07-82.98
			c3.7-23.43,10.48-45.83,21.34-66.94C306.56,168.87,306.97,166.13,310.64,164.85z"/>
		<path class="st0" d="M261.85,379.32c-0.76,1.17-1.74,2.89-2.91,4.46c-21.7,29.12-48.34,52.51-80.11,70.28
			c-8.14,4.55-14.73,4.99-22.75,0.16c-10.37-6.24-10.77-5.9-3.04-14.75c27.18-31.11,61.1-52.14,99.67-66.07
			C257.46,371.68,262.05,374.52,261.85,379.32z"/>
		<path class="st0" d="M367.42,352.39c13.98-0.38,26.89,0.45,39.76,2.72c4.95,0.87,7.42,3.15,8.76,7.74
			c1.81,6.23,3.84,12.42,6.15,18.49c2.32,6.08,0.42,8.21-5.89,7.89c-30.43-1.53-59.95-7.34-88.31-18.62
			c-2.32-0.92-4.69-1.76-6.91-2.9c-2.94-1.51-7.34-1.9-6.81-6.7c0.57-5.24,5.25-4.73,8.7-5.25
			C337.94,353.49,353.07,351.64,367.42,352.39z"/>
		<path class="st0" d="M765.62,427.21c4.5-15.32,8.52-31.57,11.43-48.09c0.78-4.42,5.01-6.73,7.53-10.11
			c4.04-5.41,8.34-10.65,12.05-16.28c2.64-4,5.4-4.82,10.05-3.6c17.69,4.64,17.83,4.49,12.22,21.57
			c-3.85,11.73-5.3,23.88-6.75,36.04c-0.33,2.81-0.76,5.38-3.51,7.02c-12.28,7.34-25.01,13.66-38.72,17.91
			C766.61,432.7,764.3,432.41,765.62,427.21z"/>
		<path class="st0" d="M288.75,432.91c0.7,16.57-1.5,32.86-4.51,49.11c-1.11,6-3.78,8.04-9.72,6.56
			c-5.07-1.27-10.26-2.25-15.45-2.84c-5.66-0.64-7.63-3.42-7.26-8.98c1.7-25.12,7.5-49.3,16.21-72.84c1.39-3.75,3.01-7.4,4.46-11.12
			c1.34-3.46,2.92-6.17,7.51-5.69c4.53,0.47,5.53,3.2,6.17,7.01C288.31,406.97,289.16,419.9,288.75,432.91z"/>
		<path class="st0" d="M392,291.36c0.28,3.53-1.57,4.92-3.28,6.37c-21.77,18.39-45.99,32.65-72.57,42.9
			c-2.72,1.05-5.57,2.5-8.06-0.86c-2.44-3.3-0.43-5.56,1.37-7.98c18.79-25.2,40.3-47.65,66.14-65.81c4.71-3.31,7.24-3.29,8.99,2.7
			C386.89,276.59,389.68,284.36,392,291.36z"/>
		<path class="st0" d="M303.18,429.15c3.86,1.15,4.53,3.49,5.65,5.33c13.03,21.49,28.78,40.76,46.88,58.16
			c1.49,1.44,4.56,2.63,3.35,5.17c-1.1,2.31-4.08,1.3-6.16,1.07c-17.1-1.92-34.19-4-51.28-6.03c-3.14-0.37-5.36-1.65-4.58-5.3
			C301.06,468.51,302.78,449.2,303.18,429.15z"/>
		<path class="st0" d="M246.26,421.39c-1.52,12.91-4.97,25.15-6.31,37.78c-0.58,5.47-1.42,10.91-1.97,16.38
			c-0.38,3.79-1.92,5.26-5.91,4.36c-13.93-3.13-27.65-6.98-41.22-11.36c-2.63-0.85-5.26-2.48-1.16-4.83
			C210.16,451.97,228.58,437.54,246.26,421.39z"/>
		<path class="st0" d="M300.55,357.67c0.2,8.2-7.05,15.81-15.47,16.23c-8.53,0.42-16.5-7.17-16.59-15.8
			c-0.09-8.58,6.79-15.79,15.37-16.11C292.56,341.67,300.34,348.99,300.55,357.67z"/>
		<path class="st0" d="M358.77,338.07c1.2-4.32,4.19-4.98,6.38-6.33c9.58-5.91,18.92-12.15,27.51-19.45c3.5-2.98,5.61-2.44,7.01,1.9
			c2.3,7.13,4.72,14.22,7.06,21.34c0.99,3,1.31,5.85-3.27,5.1C388.89,338.25,374.19,338.13,358.77,338.07z"/>
		<path class="st0" d="M469.93,655.44c0-9.01-0.12-18.03,0.04-27.03c0.15-8.55,2.92-11.35,11.23-11.46
			c8.51-0.12,17.02-0.13,25.53,0.01c7.82,0.13,10.4,2.61,10.48,10.39c0.15,15.52,0,31.04,0.09,46.56
			c0.05,9.33,1.69,11.01,10.94,11.07c14.77,0.1,29.54-0.05,44.31,0.07c9.69,0.08,13.66,4.2,13.73,13.7
			c0.08,10.76,0.2,21.52,0.3,32.28c0.06,6.24-3.41,9.4-11.58,9.54c-14.52,0.24-29.04,0.1-43.56,0.12
			c-13.42,0.03-14.15,0.74-14.16,13.92c-0.02,14.27,0.06,28.54-0.04,42.81c-0.06,8.87-2.38,11.23-11.05,11.35
			c-8.26,0.11-16.52,0.11-24.78-0.01c-8.51-0.12-11.33-2.78-11.42-11.25c-0.17-15.27-0.02-30.54-0.09-45.81
			c-0.04-9.5-1.45-10.93-10.88-10.98c-14.77-0.08-29.54,0.05-44.31-0.05c-10.65-0.07-13.47-2.86-13.63-13.29
			c-0.11-7.26-0.14-14.52,0.01-21.78c0.19-9.46,3.2-12.7,12.71-12.85c15.02-0.25,30.04-0.03,45.06-0.14
			c9.51-0.07,10.96-1.55,11.04-10.87c0.07-8.76,0.01-17.52,0.01-26.28C469.91,655.44,469.92,655.44,469.93,655.44z"/>
	</g>
</g>
</svg>
