<?xml version="1.0" encoding="utf-8"?>
<!-- Generator: Adobe Illustrator 25.4.0, SVG Export Plug-In . SVG Version: 6.00 Build 0)  -->
<svg version="1.1" id="Layer_1" xmlns="http://www.w3.org/2000/svg" xmlns:xlink="http://www.w3.org/1999/xlink" x="0px" y="0px"
	 viewBox="0 0 1000 1000" style="enable-background:new 0 0 1000 1000;" xml:space="preserve">
<style type="text/css">
	.st0{fill:#FFFFFF;}
</style>
<g id="nNejwY_00000163775369348629796180000008511344111329493648_">
	<g>
		<path class="st0" d="M500.58,981.58c-30.8,0-61.61-0.1-92.41,0.05c-10.48,0.05-21-0.01-31.34-1.15
			c-24.1-2.68-46.24-11.01-66.22-25.04c-26.74-18.78-45.08-43.65-55.22-74.64c-4.33-13.23-6.64-26.77-7.08-40.74
			c-0.54-16.93,0.73-33.77,3.14-50.41c2.47-17.03,5.96-33.96,11.47-50.4c3.34-9.97,6.41-20.01,10.1-29.87
			c4.43-11.83,10.42-22.89,16.21-34.04c12.44-23.96,28.32-45.48,46.19-65.72c22.84-25.86,41.57-54.52,55.48-86.21
			c8.54-19.45,14.74-39.62,19.25-60.36c2.28-10.49,4.45-20.96,5.34-31.67c0.18-2.2,1-4.34,1.51-6.51c0.39-1.68,1.45-2.03,3.03-1.72
			c13.97,2.66,27.26-0.25,40.17-5.28c17.2-6.7,34.2-6.63,51.39,0.14c13.34,5.25,26.98,7.52,41.53,5c8.97-1.55,17.14-4.93,25.61-7.69
			c4.27-1.39,5.1-0.8,5.54,3.82c2.06,21.97,6.13,43.53,12.09,64.82c8.16,29.15,20.95,56.15,36.58,81.85
			c7.98,13.12,17.19,25.46,27.29,37.08c4.78,5.49,10.55,10.42,14.69,16.07c13.51,18.45,27.5,36.67,37.79,57.32
			c8.86,17.77,17.65,35.55,23.44,54.59c3.68,12.1,6.92,24.33,9.71,36.7c3.38,15,5.38,30.22,6.51,45.43
			c1.06,14.34,1.37,28.78-0.8,43.28c-2.69,17.97-8.15,34.82-16.86,50.59c-14.02,25.39-34.26,44.59-59.81,58.17
			c-13.52,7.18-27.85,11.86-43.09,14.24c-19.18,2.99-38.43,2.14-57.66,2.29c-24.52,0.19-49.05,0.05-73.57,0.05
			C500.58,981.59,500.58,981.58,500.58,981.58z M718.62,841.97c0-1.34-0.01-2.69,0-4.03c0.06-5.58-1.82-7.86-6.65-8.03
			c-5.57-0.2-7.69,1.57-7.51,7.42c0.2,6.66-1.17,13.09-2.47,19.46c-3.6,17.64-12.12,32.85-24.4,45.98
			c-3.27,3.49-3.92,8.97-1.36,11.72c3.11,3.34,7.06,3.09,11.27-1.26C706.71,893.36,716.67,869.41,718.62,841.97z M716.72,801.59
			c-0.26-1.67-0.53-3.74-0.89-5.8c-0.71-4.03-3.34-5.88-7.23-5.92c-3.58-0.04-6.39,2.76-6.82,6.45c-0.3,2.58,0.35,5.06,0.84,7.54
			c0.89,4.46,3.85,6.69,7.88,6.09C714.45,809.35,716.87,806.27,716.72,801.59z"/>
		<path class="st0" d="M500.97,180.1c33.79,0,67.58-0.01,101.37,0c6.09,0,6.03,0.07,5.4,5.95c-1.71,15.84-4.17,31.59-5.98,47.42
			c-1.54,13.45-3.55,26.87-5.33,40.3c-1.76,13.27-3.64,26.53-5.43,39.8c-1.75,12.96-3.51,25.93-5.33,38.88
			c-1.94,13.81-2.48,27.61-2.35,41.48c0.04,3.73-1.03,5.71-5,6.49c-3.9,0.76-7.68,2.34-11.39,3.86
			c-17.63,7.25-35.08,6.68-52.55-0.65c-10.44-4.38-21.52-6.52-32.74-5.72c-11,0.79-21.46,4.42-31.89,8.15
			c-8.83,3.16-18.07,4.9-27.66,2.63c-3.13-0.74-4.17-2.03-4.16-5.1c0.06-13,0.41-26-0.85-38.97c-1.02-10.51-2.36-20.95-4.06-31.38
			c-1.65-10.13-2.66-20.37-4-30.55c-1.55-11.79-3.26-23.56-4.72-35.37c-2.07-16.72-4.39-33.4-6.47-50.12
			c-1.32-10.6-2.68-21.23-4.35-31.8c-0.78-4.92-0.44-5.29,4.77-5.3C432.5,180.09,466.74,180.1,500.97,180.1z"/>
		<path class="st0" d="M248.52,355.28c-1.5-23.51,5.31-44.02,18.56-62.31c10.81-14.92,25-25.75,42.29-32.67
			c11-4.4,22.49-5.86,33.99-7.05c5.96-0.62,12.08,1.29,18.2,1.66c7.26,0.44,14.47,1.68,21.72,2.37c3.45,0.33,5.64,1.67,6.05,5.3
			c0.98,8.57,1.84,17.17,3.07,25.71c0.53,3.65-0.84,4.66-4.08,4.28c-9.17-1.07-18.35-2.05-27.49-3.27
			c-10.66-1.42-21.35-2.32-31.83,0.61c-18.86,5.28-32.74,16.84-40.97,34.66c-7.1,15.37-6.34,31.55-3.94,47.81
			c0.52,3.53,0.38,7.16,0.85,10.71c3.63,27.45,12.19,53.4,24.7,77.99c8.68,17.05,19.44,32.81,32.15,47.22
			c7.71,8.74,15.61,17.26,24.65,24.66c1.82,1.49,1.99,3.12,0.9,5.13c-4.36,7.99-8.73,15.97-13.81,23.55
			c-1.82,2.72-3.26,2.7-5.67,0.65c-18.84-16.06-35.76-33.92-49.71-54.36c-16.13-23.63-29.07-48.89-37.26-76.5
			c-3.82-12.86-7.43-25.8-9.33-38.99C249.75,379.96,247.36,367.39,248.52,355.28z"/>
		<path class="st0" d="M500.45,165.86c-39.32,0-78.65,0.03-117.97-0.02c-11.67-0.02-20.39-4.9-25.12-15.98
			c-5.96-13.98,4.94-31.61,20.19-32.6c1.04-0.07,2.09-0.05,3.14-0.05c79.99,0,159.99-0.01,239.98,0.01
			c12.55,0,22.79,8.67,24.73,20.8c1.92,12.02-6.97,24.68-18.97,26.98c-3.23,0.62-6.49,0.89-9.8,0.89
			C577.9,165.85,539.17,165.86,500.45,165.86z"/>
		<path class="st0" d="M500.65,103.03c-19.58,0-39.16,0.01-58.74-0.01c-5.81-0.01-5.94-0.38-6.23-6.05
			c-0.71-13.89-0.59-27.78-0.59-41.67c0-6.97,0.03-7.01,6.47-4.98c11,3.47,22.36,4.74,33.73,6.39c12.85,1.86,25.64,1.61,38.41,1.14
			c16.08-0.6,32.07-2.76,47.42-7.99c3.94-1.34,4.9,0.1,4.91,3.44c0.05,14.95,0.02,29.89,0.07,44.84c0.01,4.03-2.26,4.93-5.8,4.92
			C540.41,102.98,520.53,103.03,500.65,103.03z"/>
		<path class="st0" d="M502.09,18.62c11.57-0.88,24.48,0.48,37.26,2.75c7.3,1.29,14.65,2.88,21.44,6.12
			c1.55,0.74,3.69,1.41,3.83,3.44c0.16,2.27-2.16,2.6-3.71,3.31c-9.86,4.53-20.46,6.19-31.05,7.87
			c-13.92,2.21-27.99,2.56-41.93,1.53c-16.12-1.18-32.41-2.49-47.45-9.44c-1.56-0.72-3.88-0.95-3.79-3.22
			c0.09-2.05,2.24-2.76,3.79-3.45c8.8-3.89,18.14-5.65,27.6-7.16C478.88,18.64,489.72,18.39,502.09,18.62z"/>
	</g>
</g>
</svg>
