<?xml version="1.0" encoding="utf-8"?>
<!-- Generator: Adobe Illustrator 25.4.0, SVG Export Plug-In . SVG Version: 6.00 Build 0)  -->
<svg version="1.1" id="Layer_1" xmlns="http://www.w3.org/2000/svg" xmlns:xlink="http://www.w3.org/1999/xlink" x="0px" y="0px"
	 viewBox="0 0 1000 1000" style="enable-background:new 0 0 1000 1000;" xml:space="preserve">
<style type="text/css">
	.st0{fill:#FFFFFF;}
</style>
<g id="bLLzV6_00000098193522473626002960000007397063421454445983_">
	<g>
		<path class="st0" d="M487.55,171.48c-0.01,32.53-0.02,65.06,0.01,97.59c0,3.69-0.23,7.46,0.4,11.06
			c1.29,7.28,5.59,12.64,13.21,12.67c8.15,0.03,12.83-5.46,13.69-13.33c0.68-6.22,0.35-12.55,0.35-18.83
			c0.01-63.21-0.01-126.42,0-189.63c0-13.14,0.9-13.93,14.05-11.49c50.75,9.42,89.91,37.86,123.29,75.57
			c28.47,32.16,49.19,69.1,66.62,108.12c3.35,7.51,2.34,11.68-5.47,14.35c-7.33,2.51-14.5,5.51-21.78,8.18
			c-8.42,3.08-13.62,8.7-10.37,17.73c3.09,8.58,10.11,11.18,18.95,7.82c6.91-2.63,14.08-4.64,20.75-7.76
			c8.29-3.88,12.49-2.12,15.31,6.95c10.45,33.59,18.55,67.7,23.78,102.47c4.18,27.76,6.57,55.69,7.82,83.76
			c0.39,8.69-2.66,11.3-10.61,10.95c-9.58-0.42-16.99,2.74-17.93,13.61c-0.73,8.37,5.5,13.59,17.46,13.88
			c7.77,0.19,11.25,2.3,11,10.93c-1.79,61.69-11.98,121.94-29.99,180.91c-5.15,16.85-5.26,16.83-21.91,10.3
			c-33.85-13.28-68.76-22.66-104.68-28.17c-12.37-1.9-18.84,1.67-19.57,10.37c-0.91,10.99,6.11,14.57,15.55,16.23
			c36.11,6.35,71.47,15.5,105.61,29.13c6.5,2.59,10.01,5.44,6.63,13.04c-26.05,58.46-58.87,111.91-111.55,150.55
			c-23.53,17.26-49.42,29.54-78.44,34.56c-13.49,2.33-14.48,1.62-14.5-12.47c-0.06-35.86,0.02-71.71-0.09-107.57
			c-0.01-4.76-0.23-9.68-1.42-14.24c-1.63-6.28-6.15-10.5-12.9-10c-6.9,0.52-11.54,4.82-12.86,11.79c-0.61,3.23-0.39,6.63-0.4,9.95
			c-0.03,36.96,0.02,73.93-0.06,110.89c-0.03,13.12-1.18,13.94-14.3,11.61c-50.94-9.06-89.99-37.75-123.31-75.44
			c-28.42-32.15-49.44-68.95-66.49-108.19c-3.22-7.41-2.11-11.07,5.68-14.25c34.06-13.9,69.45-22.83,105.5-29.47
			c2.54-0.47,5.21-0.64,7.57-1.58c6.18-2.44,9.47-7.19,8.72-13.87c-0.76-6.8-5.18-10.71-11.87-10.96
			c-5.49-0.21-11.1,0.27-16.51,1.25c-34.63,6.29-68.58,15.21-101.07,28.86c-9.39,3.95-12.86,1.56-15.77-7.63
			c-17.6-55.64-26.81-112.76-31.3-170.77c-0.28-3.66,0.87-7.49,0.24-11.04c-1.96-11.12,2.11-15.45,13.54-15.04
			c8.01,0.29,14.49-3.6,14.59-13.12c0.11-10.13-6.66-14.1-15.14-13.73c-11.74,0.52-14.42-4.66-13.76-15.26
			c3.86-61.82,13.18-122.61,31.83-181.85c3.05-9.68,7.37-11.33,16.08-6.99c6.58,3.27,13.78,5.28,20.72,7.84
			c8.89,3.28,15.74,0.19,18.98-8.14c3.37-8.68-2.04-13.97-9.67-17.1c-7.86-3.23-15.77-6.34-23.76-9.23
			c-5.99-2.16-8.21-5.38-5.42-11.75c29.3-66.89,67.78-126.37,132.5-164.72c18.64-11.05,38.91-17.69,60.15-21.78
			c9.09-1.75,12.61,0.63,12.48,10.47C487.27,103.46,487.55,137.47,487.55,171.48z M501.08,325.44c-22.91,0-45.81-0.09-68.71,0.03
			c-14.58,0.08-18.14,3.74-18.24,18.55c-0.11,18.1,0,36.2-0.04,54.31c-0.03,15.42-0.3,15.72-15.3,15.76
			c-19.21,0.06-38.42-0.14-57.63,0.11c-11.32,0.15-15.48,4.22-15.63,15.44c-0.12,8.82,1.43,17.68,0.97,26.46
			c-2.01,38.39-0.4,76.8-0.79,115.19c-0.13,13.09,4.1,17.18,17.27,17.32c19.21,0.21,38.43,0.48,57.63-0.1
			c9.98-0.3,13.95,2.95,13.64,13.25c-0.57,19.19-0.3,38.42-0.09,57.63c0.15,13.7,4.33,17.92,18.01,17.96
			c46.18,0.13,92.36,0.13,138.54-0.01c13.55-0.04,17.76-4.41,17.9-18.11c0.19-18.84,0.5-37.7-0.12-56.52
			c-0.34-10.4,2.92-14.58,13.79-14.19c19.19,0.68,38.42,0.33,57.62,0.11c12.87-0.15,17.46-4.61,17.51-17.44
			c0.16-46.55,0.17-93.1,0-139.65c-0.05-13.12-4.39-17.25-17.38-17.35c-19.95-0.16-39.9-0.31-59.85,0.03
			c-8.62,0.14-11.79-3.23-11.62-11.8c0.39-18.83,0.16-37.68,0.09-56.52c-0.07-16.73-3.6-20.38-19.99-20.45
			C546.15,325.36,523.61,325.44,501.08,325.44z"/>
		<path class="st0" d="M97.85,513.93c38.27,0,69.17,0.15,100.06-0.09c8.99-0.07,9.98,5.1,10.16,12.15
			c1.03,40.67,5.12,81.01,13.35,120.89c5.38,26.07,11.6,51.94,20.7,76.96c3.25,8.94,0.97,12.85-7.01,17.33
			c-31.82,17.85-60.95,39.12-81.09,70.49c-4.08,6.35-7.28,4.24-11-0.17c-34.35-40.66-62.38-85.17-81.99-134.77
			c-18.18-45.97-29.34-93.59-33.01-142.95c-1.31-17.66-0.81-18.66,16.36-18.46C64.68,515.55,84.95,514.86,97.85,513.93z"/>
		<path class="st0" d="M814.77,515.26c50.16,0,100.33,0.26,150.49-0.21c10.33-0.1,10.48,5.24,9.98,12.5
			c-3.44,49.73-14.03,97.92-31.86,144.43c-19.63,51.19-47.71,97.39-83.66,138.8c-3.33,3.83-6.31,8.21-10.81,1.2
			c-20.13-31.4-49.12-52.82-81.05-70.54c-8.52-4.73-10.22-9.19-7.1-18.32c14.48-42.43,23.98-86.08,29.04-130.6
			c2.41-21.22,4.57-42.62,4.47-63.92c-0.06-12.3,4.33-15.52,14.97-14.77c1.84,0.13,3.69,0.02,5.54,0.02
			C814.77,514.31,814.77,514.78,814.77,515.26z"/>
		<path class="st0" d="M160.27,487.59c-39.43,0-78.86,0.03-118.28-0.01c-13.92-0.01-14.99-0.66-14.11-14.27
			c4.99-77.63,27.58-149.84,67.63-216.55c13.72-22.86,29.52-44.22,46.85-64.45c3.12-3.65,6.39-9.93,11.48-1.69
			c19.06,30.84,47.62,50.95,77.87,69.23c13.52,8.16,15.13,4.19,8.73,23.88c-20.22,62.21-31.23,126.03-32.24,191.47
			c-0.14,9.1-2.08,13.57-12.48,12.69c-11.74-1-23.62-0.23-35.44-0.23C160.27,487.61,160.27,487.6,160.27,487.59z"/>
		<path class="st0" d="M885.46,487.72c-25.87,0-51.74-0.29-77.61,0.15c-9.37,0.16-12.93-2.78-13.25-12.57
			c-2.18-67.95-12.81-134.5-34.98-198.95c-2.04-5.94-1.12-9.56,4.56-12.69c33.04-18.19,62.74-40.45,84.62-71.78
			c4.8-6.87,7.61-3.72,11.57,0.87c57.67,66.86,93.62,143.92,108.32,230.87c2.95,17.45,4.41,35.14,6.54,52.73
			c1.01,8.33-1.78,11.75-11.06,11.52c-26.23-0.66-52.48-0.23-78.72-0.23C885.46,487.68,885.46,487.7,885.46,487.72z"/>
		<path class="st0" d="M520.2,30.24c25.93-1.75,51.45,1.51,76.68,6.79c89,18.64,166.42,59.49,232.52,121.94
			c4.31,4.07,5.06,7.14,1.47,12.17c-19.43,27.29-44.34,48.27-72.96,65.31c-7.98,4.75-11.74,3.72-15.61-5.12
			c-21.95-50.17-50.13-96.33-90.08-134.46c-35.55-33.93-76.06-58.39-125.84-64.82C524.28,31.78,522.26,30.86,520.2,30.24z"/>
		<path class="st0" d="M485.71,27.86c-8.74,5.78-15.68,4.6-22.04,5.96c-39.27,8.43-73.26,27.1-103.08,53.5
			c-43.06,38.13-74.07,84.99-97.36,137.19c-8.28,18.56-8.06,18.76-25.58,7.69c-25.19-15.92-48.27-34.02-63.67-60.39
			c-3.9-6.68-3-10.7,2.72-16.01C248.31,89.23,332.4,48.4,428.84,32.97C446.6,30.13,464.49,27.84,485.71,27.86z"/>
		<path class="st0" d="M519.51,973.96c16.26-4.67,32.47-7.5,48.03-13.41c48.17-18.3,85.43-50.57,116.91-90.33
			c24.02-30.33,42.35-64.05,58.22-99.17c2.41-5.34,4.19-10.77,11.83-6.4c28.82,16.51,55.21,35.62,73.28,64.46
			c4.57,7.3,4.13,11.95-2.29,17.91C751.46,915.8,664.39,957,564.41,970.97c-13.87,1.94-27.91,2.73-41.87,3.96
			C521.57,975.02,520.52,974.3,519.51,973.96z"/>
		<path class="st0" d="M484.38,973.57c-10.2,3.52-19.59,0.23-28.61-0.68c-106.01-10.74-198.34-52.13-277-124.23
			c-8.43-7.73-8.49-13.49-2.43-22.24c18.56-26.81,43.61-45.8,71.55-61.63c7.63-4.32,9.63,0.79,11.97,6.15
			c14.98,34.33,33.11,66.88,56.1,96.5c31.05,39.99,67.79,73,115.71,91.85c14.16,5.57,28.72,9.49,43.88,11.13
			C478.34,970.72,481.4,970.35,484.38,973.57z"/>
		<path class="st0" d="M351.72,500.66c0-14.41-0.05-28.83,0.01-43.24c0.08-16.75,0.4-16.99,17.68-16.98
			c17.74,0.01,35.48,0.12,53.22-0.05c14.33-0.14,17.61-3.43,17.74-17.8c0.17-18.85,0.44-37.71-0.08-56.55
			c-0.28-10.25,2.94-14.65,13.84-14.47c31.78,0.5,63.58,0.52,95.36-0.02c10.12-0.17,12.9,4.21,12.83,13.13
			c-0.15,19.59-0.1,39.18,0.09,58.77c0.13,13.62,3.41,16.93,17.25,17.06c19.59,0.19,39.19,0.35,58.77-0.2
			c8.45-0.24,12.4,2.61,12.36,11.09c-0.16,34.33-0.28,68.66-0.32,102.99c-0.01,7.58-5.12,7.9-10.58,7.91
			c-18.85,0.02-37.7,0.06-56.55,0c-13.79-0.05-20.53,5.57-20.95,19.54c-0.55,18.45-0.36,36.94,0.07,55.4
			c0.22,9.58-2.68,14.12-13.2,13.97c-31.78-0.47-63.58-0.4-95.36-0.04c-9.94,0.11-13.86-3.43-13.61-13.58
			c0.47-19.21,0.2-38.44-0.17-57.65c-0.26-13.69-3.78-17.08-17.24-17.27c-18.31-0.26-36.63-0.32-54.95-0.31
			c-15.07,0.01-15.94-0.48-16.21-15.11c-0.29-15.52-0.06-31.05-0.06-46.57C351.69,500.66,351.7,500.66,351.72,500.66z"/>
	</g>
</g>
</svg>
