<?xml version="1.0" encoding="utf-8"?>
<!-- Generator: Adobe Illustrator 24.0.1, SVG Export Plug-In . SVG Version: 6.00 Build 0)  -->
<svg version="1.1" id="Layer_1" xmlns="http://www.w3.org/2000/svg" xmlns:xlink="http://www.w3.org/1999/xlink" x="0px" y="0px"
	 viewBox="0 0 700 700" style="enable-background:new 0 0 700 700;" xml:space="preserve">
<style type="text/css">
	.st0{fill:#FFFFFF;}
</style>
<g>
	<path class="st0" d="M186,589.5c0,1.8,1.4,3.2,3,3.3c1.7,0.1,3.1-1.3,3.1-3.1c0.1-10.2,1-22,1.9-34.1c3-40.3,6.3-85.1-16.3-100.4
		l0,0L83.4,388c-2.6-2.7-4.1-5-4.8-6.9c-0.5-1.4-0.4-2.6,0-3.6c0.5-1.1,1.6-2,3.1-2.8c2.8-1.4,6.7-2.2,11-2.2
		c14-0.2,22.2,5.8,31.5,12.8c5.1,3.8,10.5,7.8,17.5,11.4c0.1,0.1,0.2,0.1,0.3,0.1c3.1,1.5,6.2,2.7,9.6,3.2c3.5,0.6,7.2,0.6,11.5-0.1
		c1.7-0.3,2.8-1.9,2.5-3.6s-1.9-2.9-3.6-2.7c-3.6,0.6-6.8,0.5-9.6,0.1c-2.5-0.4-4.8-1.2-7-2.2c-19.9-40.1-9.4-102.7-2.1-146.4
		l0.4-2.6c0-0.1,0-0.1,0-0.2c0.7-5.3,3-8.6,5.7-10c1.2-0.6,2.5-0.9,3.7-0.9s2.4,0.4,3.5,1.1c2,1.2,3.5,3.6,3.9,7
		c0.1,11.2-0.6,21.8-1.2,32.5c-1.3,21.5-2.7,43.1,2.2,70.9c0.3,1.7,1.9,2.9,3.6,2.7c1.7-0.3,2.8-1.9,2.5-3.6
		c-4.7-26.9-3.4-48.1-2.1-69.3c0.6-9.4,1.2-18.8,1.2-28.8l2.9-22c1-3.4,2.5-5.7,4.2-7.1c1.1-0.9,2.2-1.4,3.4-1.7
		c1.1-0.2,2.2-0.1,3.3,0.2c1.3,0.4,2.6,1.3,3.5,2.5c2.4,3,2.3,7.5,2.2,11.7c0,0.6,0,1.2,0,2.2c0,3.5-0.1,6.9-0.3,10.2l0,0v0.1
		c-0.2,4.6-0.4,9-0.7,13.5c-1.2,21.6-2.5,43.1,4.1,75.8c0.4,1.7,2,2.9,3.7,2.6s2.7-2,2.4-3.7c-6.5-31.8-5.2-52.9-4-74
		c0.3-4.5,0.5-8.9,0.7-13.5c1-5.6,3.1-8.8,5.4-10c0.9-0.5,1.8-0.6,2.8-0.5c0.9,0.1,1.9,0.5,2.7,1.2c2.2,1.7,3.7,5,3.7,9.5
		c-0.2,17.2,0.4,33.2,2.2,48.6c1.7,15.5,4.6,30.5,9,45.7c0.5,1.7,2.2,2.7,3.8,2.2s2.5-2.2,2.1-3.9c-4.3-14.8-7.1-29.5-8.8-44.6
		c-0.9-7.7-1.4-15.6-1.8-23.6c0.2-1.9,1-3.3,1.9-4.3c1.2-1.1,2.8-1.7,4.3-1.7c4.8,0,5.5,4.3,6.3,8.6c0.2,1,0.4,2.1,0.6,3
		c4.2,20,9.1,34.1,14,48.2c1,3,2.1,5.9,3.1,9.1c5.4,15.8,11.4,27.9,17.7,40.7c3.4,6.8,6.9,13.8,10.4,21.8c4.5,10.1,9.5,21.9,12,34.5
		c2.5,12.3,2.8,25.5-1.8,38.5l-0.3,0.8c-1.9,5.2-3.7,10.5-3.8,16.5c-0.6,39.2,7.3,63.7,16.2,91.4c1.2,3.8,2.5,7.7,3.8,12
		c0.5,1.7,2.3,2.7,3.9,2.2s2.5-2.3,2-4c-1.2-3.9-2.5-8-3.8-12c-8.8-27.1-16.5-51.1-15.9-89.3c0.1-5,1.8-9.7,3.4-14.4l0.3-0.8
		c5.1-14.3,4.8-28.6,2-42c-2.7-13.2-7.8-25.4-12.5-35.8c-3.6-8-7.1-15.1-10.5-22c-6.3-12.6-12.2-24.4-17.4-39.9
		c-1-3-2.1-6.1-3.2-9.2c-4.8-13.9-9.7-27.8-13.8-47.4c-0.2-1-0.4-1.9-0.5-2.8c-1.2-7.1-2.4-14.1-12.5-14c-2.2,0-4.4,0.6-6.4,1.8
		c-0.1-4.5-0.1-9,0-13.6l0,0c0-6.7-2.6-11.9-6.2-14.7c-1.8-1.4-3.8-2.3-5.8-2.5c-2.1-0.3-4.2,0.1-6.2,1.1c-0.7,0.4-1.5,0.9-2.2,1.5
		c0.1-4.9-0.1-10.1-3.6-14.5c-1.8-2.3-4.1-3.9-6.6-4.7c-2-0.7-4.2-0.8-6.3-0.4c-2.1,0.4-4.1,1.4-6,2.9c-2.6,2.2-4.9,5.6-6.2,10.4
		c0,0.2-0.1,0.3-0.1,0.5l-1.2,8.8c-0.8-0.8-1.7-1.6-2.7-2.2c-2-1.2-4.2-1.9-6.5-2s-4.6,0.4-6.7,1.6c-4.2,2.3-7.8,7.1-8.8,14.6
		l-0.4,2.6c-7,41.8-16.8,100.8-0.7,142.6c-3.1-2.1-5.9-4.2-8.7-6.2c-10.2-7.6-19.2-14.3-35.3-14c-5.2,0.1-10,1-13.5,2.9
		c-2.6,1.3-4.6,3.2-5.8,5.5c-1.2,2.5-1.4,5.3-0.3,8.6c1,2.8,3,6,6.4,9.4c0.2,0.2,0.4,0.4,0.6,0.6l94.5,67.3l0,0l0.1,0.1
		c19.5,13.1,16.3,55.9,13.4,94.4C186.9,567.3,186.1,579.1,186,589.5L186,589.5L186,589.5z M240.9,364.2c1-0.3,1.6-1.4,1.2-2.5
		c-0.3-1.1-1.4-1.7-2.4-1.3c-13.5,4.2-23.2,2.5-33.1,0.8c-10.2-1.8-20.6-3.6-35.4,0.7c-1,0.3-1.6,1.4-1.2,2.5
		c0.3,1.1,1.4,1.7,2.4,1.4c13.9-4.1,23.9-2.3,33.7-0.6C216.4,366.9,226.5,368.7,240.9,364.2L240.9,364.2L240.9,364.2z M169.6,379.7
		c-1.1,0-1.9,1-1.8,2c0.1,1.1,1,2,2,1.9c21.8-0.7,38,3.4,50.2,12.6s20.4,23.7,26.3,43.8c0.3,1.1,1.4,1.7,2.4,1.4
		c1-0.3,1.6-1.4,1.3-2.4c-6.1-21-14.9-36.2-27.8-46C209.3,383.3,192.3,379,169.6,379.7L169.6,379.7z M268.5,492.3
		c1,0.2,2-0.5,2.2-1.6s-0.5-2.1-1.6-2.3c-3.4-0.7-6.5-0.9-9.3-0.8c-2.9,0.1-5.5,0.5-8,1.1c-1,0.3-1.6,1.3-1.3,2.4s1.3,1.7,2.4,1.5
		c2.2-0.6,4.6-1,7.2-1C262.6,491.4,265.4,491.7,268.5,492.3L268.5,492.3L268.5,492.3z M239,497.9c1-0.4,1.4-1.6,1-2.6
		s-1.6-1.5-2.5-1.1c-3.4,1.4-6.8,2.7-10.4,3.1c-3.6,0.4-7.6,0.1-12.2-1.6c-1-0.4-2.1,0.2-2.4,1.2c-0.3,1,0.2,2.2,1.2,2.5
		c5.3,1.9,9.8,2.3,14,1.8C231.6,500.8,235.3,499.5,239,497.9L239,497.9L239,497.9z M267.4,481c1,0.2,2-0.5,2.2-1.6s-0.5-2.1-1.6-2.3
		c-12.5-2.6-20.9,1.1-28.8,4.6c-7.7,3.4-15,6.6-25.6,2.8c-1-0.4-2.1,0.2-2.4,1.2c-0.3,1,0.2,2.2,1.2,2.5c12,4.4,19.9,0.9,28.3-2.8
		C248.2,482.1,256,478.7,267.4,481L267.4,481z M515.4,589.5c0,1.8-1.4,3.2-3,3.3c-1.7,0.1-3.1-1.3-3.1-3.1c-0.1-10.2-1-22-1.9-34.1
		c-3-40.3-6.3-85.1,16.3-100.4l0,0L618,388c2.6-2.7,4.1-5,4.8-6.9c0.5-1.4,0.4-2.6,0-3.6c-0.5-1.1-1.6-2-3.1-2.8
		c-2.8-1.4-6.7-2.2-11-2.2c-14-0.2-22.2,5.8-31.5,12.8c-5.1,3.8-10.5,7.8-17.5,11.4c-0.1,0.1-0.2,0.1-0.3,0.1
		c-3.1,1.5-6.2,2.7-9.6,3.2c-3.5,0.6-7.2,0.6-11.5-0.1c-1.7-0.3-2.8-1.9-2.5-3.6s1.9-2.9,3.6-2.7c3.6,0.6,6.8,0.5,9.6,0.1
		c2.5-0.4,4.8-1.2,7-2.2c19.9-40.1,9.4-102.7,2.1-146.4l-0.4-2.6c0-0.1,0-0.1,0-0.2c-0.7-5.3-3-8.6-5.7-10c-1.2-0.6-2.5-0.9-3.7-0.9
		s-2.4,0.4-3.5,1.1c-2,1.2-3.5,3.6-3.9,7c-0.1,11.2,0.6,21.8,1.2,32.5c1.3,21.5,2.7,43.1-2.2,70.9c-0.3,1.7-1.9,2.9-3.6,2.7
		c-1.7-0.3-2.8-1.9-2.5-3.6c4.7-26.9,3.4-48.1,2.1-69.3c-0.6-9.4-1.2-18.8-1.2-28.8l-2.9-22c-1-3.4-2.5-5.7-4.2-7.1
		c-1.1-0.9-2.2-1.4-3.4-1.7c-1.1-0.2-2.2-0.1-3.3,0.2c-1.3,0.4-2.6,1.3-3.5,2.5c-2.4,3-2.3,7.5-2.2,11.7c0,0.6,0,1.2,0,2.2
		c0,3.5,0.1,6.9,0.3,10.2l0,0v0.1c0.2,4.6,0.4,9,0.7,13.5c1.2,21.6,2.5,43.1-4.1,75.8c-0.4,1.7-2,2.9-3.7,2.6s-2.7-2-2.4-3.7
		c6.5-31.8,5.2-52.9,4-74c-0.3-4.5-0.5-8.9-0.7-13.5c-1-5.6-3.1-8.8-5.4-10c-0.9-0.5-1.8-0.6-2.8-0.5c-0.9,0.1-1.9,0.5-2.7,1.2
		c-2.2,1.7-3.7,5-3.7,9.5c0.2,17.2-0.4,33.2-2.2,48.6c-1.7,15.5-4.6,30.5-9,45.7c-0.5,1.7-2.2,2.7-3.8,2.2c-1.6-0.5-2.5-2.2-2.1-3.9
		c4.3-14.8,7.1-29.5,8.8-44.6c0.9-7.7,1.4-15.6,1.8-23.6c-0.2-1.9-1-3.3-1.9-4.3c-1.2-1.1-2.8-1.7-4.3-1.7c-4.8,0-5.5,4.3-6.3,8.6
		c-0.2,1-0.4,2.1-0.6,3c-4.2,20-9.1,34.1-14,48.2c-1,3-2.1,5.9-3.1,9.1c-5.4,15.8-11.4,27.9-17.7,40.7c-3.4,6.8-6.9,13.8-10.4,21.8
		c-4.5,10.1-9.5,21.9-12,34.5c-2.5,12.3-2.8,25.5,1.8,38.5l0.3,0.8c1.9,5.2,3.7,10.5,3.8,16.5c0.6,39.2-7.3,63.7-16.2,91.4
		c-1.2,3.8-2.5,7.7-3.8,12c-0.5,1.7-2.3,2.7-3.9,2.2s-2.5-2.3-2-4c1.2-3.9,2.5-8,3.8-12c8.8-27.1,16.5-51.1,15.9-89.3
		c-0.1-5-1.8-9.7-3.4-14.4L414,466c-5.1-14.3-4.8-28.6-2-42c2.7-13.2,7.8-25.4,12.5-35.8c3.6-8,7.1-15.1,10.5-22
		c6.3-12.6,12.2-24.4,17.4-39.9c1-3,2.1-6.1,3.2-9.2c4.8-13.9,9.7-27.8,13.8-47.4c0.2-1,0.4-1.9,0.5-2.8c1.2-7.1,2.4-14.1,12.5-14
		c2.2,0,4.4,0.6,6.4,1.8c0.1-4.5,0.1-9,0-13.6l0,0c0-6.7,2.6-11.9,6.2-14.7c1.8-1.4,3.8-2.3,5.8-2.5c2.1-0.3,4.2,0.1,6.2,1.1
		c0.7,0.4,1.5,0.9,2.2,1.5c-0.1-4.9,0.1-10.1,3.6-14.5c1.8-2.3,4.1-3.9,6.6-4.7c2-0.7,4.2-0.8,6.3-0.4c2.1,0.4,4.1,1.4,6,2.9
		c2.6,2.2,4.9,5.6,6.2,10.4c0,0.2,0.1,0.3,0.1,0.5l1.2,8.8c0.8-0.8,1.7-1.6,2.7-2.2c2-1.2,4.2-1.9,6.5-2s4.6,0.4,6.7,1.6
		c4.2,2.3,7.8,7.1,8.8,14.6l0.4,2.6c7,41.8,16.8,100.8,0.7,142.6c3.1-2.1,5.9-4.2,8.7-6.2c10.2-7.6,19.2-14.3,35.3-14
		c5.2,0.1,10,1,13.5,2.9c2.6,1.3,4.6,3.2,5.8,5.5c1.2,2.5,1.4,5.3,0.3,8.6c-1,2.8-3,6-6.4,9.4c-0.2,0.2-0.4,0.4-0.6,0.6l-94.5,67.3
		l0,0l-0.1,0.1c-19.5,13.1-16.3,55.9-13.4,94.4C514.5,567.3,515.3,579.1,515.4,589.5L515.4,589.5L515.4,589.5z M460.5,364.2
		c-1-0.3-1.6-1.4-1.2-2.5c0.3-1.1,1.4-1.7,2.4-1.3c13.5,4.2,23.2,2.5,33.1,0.8c10.2-1.8,20.6-3.6,35.4,0.7c1,0.3,1.6,1.4,1.2,2.5
		s-1.4,1.7-2.4,1.4c-13.9-4.1-23.9-2.3-33.7-0.6C485,366.9,474.9,368.7,460.5,364.2L460.5,364.2L460.5,364.2z M531.9,379.7
		c1.1,0,1.9,1,1.8,2c-0.1,1.1-1,2-2,1.9c-21.8-0.7-38,3.4-50.2,12.6s-20.4,23.7-26.3,43.8c-0.3,1.1-1.4,1.7-2.4,1.4
		c-1-0.3-1.6-1.4-1.3-2.4c6.1-21,14.9-36.2,27.8-46C492.1,383.3,509.1,379,531.9,379.7L531.9,379.7z M432.9,492.3
		c-1,0.2-2-0.5-2.2-1.6s0.5-2.1,1.6-2.3c3.4-0.7,6.5-0.9,9.3-0.8c2.9,0.1,5.5,0.5,8,1.1c1,0.3,1.6,1.3,1.3,2.4
		c-0.3,1.1-1.3,1.7-2.4,1.5c-2.2-0.6-4.6-1-7.2-1C438.8,491.4,436,491.7,432.9,492.3L432.9,492.3L432.9,492.3z M462.4,497.9
		c-1-0.4-1.4-1.6-1-2.6s1.6-1.5,2.5-1.1c3.4,1.4,6.8,2.7,10.4,3.1s7.6,0.1,12.2-1.6c1-0.4,2.1,0.2,2.4,1.2s-0.2,2.2-1.2,2.5
		c-5.3,1.9-9.8,2.3-14,1.8C469.8,500.8,466.1,499.5,462.4,497.9L462.4,497.9L462.4,497.9z M434,481c-1,0.2-2-0.5-2.2-1.6
		s0.5-2.1,1.6-2.3c12.5-2.6,20.9,1.1,28.8,4.6c7.7,3.4,15,6.6,25.6,2.8c1-0.4,2.1,0.2,2.4,1.2s-0.2,2.2-1.2,2.5
		c-12,4.4-19.9,0.9-28.3-2.8C453.2,482.1,445.4,478.7,434,481L434,481z M368,277c-4,4.1-10,6.7-19.6,6.6l0,0
		c-9.6,0-15.6-2.5-19.6-6.6c-4-4-5.8-9.3-7.4-15c-0.5-2-0.9-4-1.3-6.2c-0.9-4.8-1.8-9.7-4-11c-0.7,0-1.6,2-2.4,4
		c-1.5,3.5-3,7-6.9,7.3c-0.3,0-0.7,0-1,0c-4.8-0.3-9-5.5-11.9-12c-2.6-5.9-4.5-13-4.9-17.9c-0.1-1.1-0.1-2.2-0.1-3.1
		c0.3-5.9,2.9-11.2,6.6-14.6c2-1.9,4.4-3.2,7-3.7s5.4-0.2,8.1,1.2c3.9,2,7.6,6.4,10.4,13.8c2.5,6.9,5.4,10.9,9.5,13.3
		c4.2,2.4,9.9,3.3,18,3.6c8-0.3,13.8-1.2,18-3.6c4.1-2.4,7-6.4,9.5-13.3c2.7-7.4,6.4-11.8,10.4-13.8c2.7-1.4,5.4-1.7,8.1-1.2
		c2.5,0.5,4.9,1.8,7,3.7c3.6,3.4,6.2,8.7,6.6,14.6c0.1,1,0,2-0.1,3.1c-0.4,4.9-2.2,12-4.9,17.9c-2.9,6.5-7,11.7-11.9,12
		c-0.4,0-0.7,0-1,0c-3.9-0.3-5.3-3.8-6.9-7.3c-0.8-2-1.7-4-2.4-4c-2.2,1.3-3.1,6.2-4,11c-0.4,2.1-0.8,4.2-1.3,6.2
		C373.8,267.6,371.9,272.9,368,277L368,277z M370.1,346.5c-4.5,4.6-11.1,7.4-21.7,7.4l0,0c-10.7,0-17.3-2.8-21.7-7.4
		c-4.4-4.5-6.5-10.4-8.2-16.8c-0.6-2.2-1-4.5-1.5-6.9c-1-5.5-2.1-11.2-4.7-12.6c-1.1-0.2-2.1,2.3-3.2,4.7c-1.7,3.9-3.3,7.7-7.4,8
		c-0.3,0-0.7,0-1.1,0c-5.3-0.3-9.8-6.1-13-13.3c-3-6.6-5-14.5-5.5-20c-0.1-1.2-0.1-2.4-0.1-3.4c0.4-6.5,3.2-12.4,7.3-16.1
		c2.2-2.1,4.8-3.5,7.6-4c2.9-0.6,5.9-0.2,8.8,1.3c4.3,2.3,8.4,7.1,11.5,15.3c2.9,7.8,6.2,12.4,10.8,15.1c4.8,2.8,11.3,3.7,20.4,4.1
		c9.1-0.4,15.6-1.3,20.4-4.1c4.7-2.7,7.9-7.3,10.8-15.1c3-8.2,7.1-13.1,11.5-15.3c2.9-1.5,6-1.9,8.8-1.3c2.8,0.5,5.4,2,7.6,4
		c4,3.7,6.9,9.6,7.3,16.1c0.1,1,0,2.2-0.1,3.4c-0.5,5.5-2.5,13.4-5.5,20c-3.2,7.2-7.8,12.9-13,13.3c-0.4,0-0.8,0-1.1,0
		c-4.1-0.3-5.8-4.2-7.4-8c-1-2.4-2.1-4.9-3.2-4.7c-2.6,1.5-3.7,7.1-4.7,12.6c-0.4,2.4-0.9,4.7-1.5,6.9
		C376.5,336.1,374.5,342,370.1,346.5L370.1,346.5z M365.8,207.5c-3.6,3.6-8.9,5.9-17.4,5.9l0,0c-8.5,0-13.8-2.2-17.4-5.9
		c-3.5-3.6-5.2-8.2-6.6-13.3c-0.5-1.7-0.8-3.6-1.2-5.4c-0.8-4.1-1.5-8.2-3.2-9.3c-0.3,0.1-1,1.7-1.7,3.3c-1.4,3.2-2.7,6.4-6.3,6.7
		c-0.3,0-0.6,0-0.9,0c-4.4-0.3-8.1-4.9-10.7-10.7c-2.3-5.2-3.9-11.4-4.3-15.8c-0.1-1-0.1-1.9-0.1-2.8c0.3-5.3,2.6-10,5.9-13
		c1.8-1.7,4-2.8,6.3-3.3c2.4-0.5,4.9-0.2,7.3,1.1c3.5,1.8,6.8,5.7,9.3,12.3c2.2,5.9,4.7,9.5,8.2,11.5c3.6,2.1,8.6,2.8,15.6,3.1
		c7-0.3,11.9-1,15.6-3.1c3.5-2,6-5.5,8.2-11.5c2.4-6.6,5.8-10.5,9.3-12.3c2.4-1.3,4.9-1.6,7.3-1.1c2.3,0.4,4.4,1.6,6.3,3.3
		c3.3,3,5.6,7.8,5.9,13c0,0.9,0,1.8-0.1,2.8c-0.4,4.4-2,10.6-4.3,15.8c-2.6,5.8-6.3,10.5-10.7,10.7c-0.3,0-0.7,0-0.9,0
		c-3.6-0.3-5-3.5-6.3-6.7c-0.7-1.6-1.3-3.1-1.7-3.3c-1.7,1.1-2.5,5.3-3.2,9.3c-0.3,1.8-0.7,3.7-1.2,5.4
		C370.9,199.2,369.3,203.9,365.8,207.5L365.8,207.5z M363.7,138.3c-3.2,3.4-7.8,5.6-15.3,5.6l0,0c-7.5,0-12.2-2.2-15.3-5.6
		c-3.1-3.3-4.5-7.5-5.7-11.9c-0.4-1.5-0.7-3.1-1-4.7c-0.6-3.3-1.2-6.7-2.5-7.7c-0.1,0.2-0.4,1.4-0.9,2.5c-1.2,2.9-2.4,5.7-5.8,6
		c-0.3,0-0.6,0-0.9,0c-4-0.2-7.3-4.3-9.6-9.5c-2-4.5-3.4-9.9-3.8-13.7c-0.1-0.9-0.1-1.7,0-2.4c0.3-4.6,2.3-8.8,5.2-11.5
		c1.6-1.5,3.5-2.5,5.6-2.9s4.4-0.1,6.6,1c3.1,1.6,6,5,8.2,10.8c1.8,5,3.9,8,6.8,9.6c3,1.8,7.2,2.4,13.2,2.6
		c5.9-0.2,10.1-0.9,13.2-2.6c2.9-1.7,5-4.6,6.8-9.6c2.1-5.8,5.1-9.2,8.2-10.8c2.2-1.1,4.4-1.4,6.6-1c2.1,0.4,4,1.4,5.6,2.9
		c2.9,2.7,4.9,6.9,5.2,11.5c0,0.8,0,1.6,0,2.4c-0.3,3.8-1.7,9.2-3.8,13.7c-2.3,5.1-5.6,9.2-9.6,9.5c-0.3,0-0.6,0-0.9,0
		c-3.4-0.3-4.6-3.1-5.8-6c-0.5-1.1-0.8-2.3-0.9-2.5c-1.2,1-1.9,4.4-2.5,7.7c-0.3,1.6-0.6,3.2-1,4.7
		C368.2,130.7,366.8,135,363.7,138.3L363.7,138.3z M372.3,416.3c-4.9,5.2-12.2,8.6-24,8.6l0,0c-11.8,0-19.1-3.3-24-8.6
		c-4.8-5.1-7-11.9-9-18.9c-0.7-2.4-1.1-5-1.6-7.6c-1.2-6.2-2.4-12.6-5.4-14.3c-1.5-0.4-2.7,2.5-3.9,5.4c-1.8,4.2-3.6,8.3-7.9,8.7
		c-0.4,0-0.8,0-1.2,0c-5.7-0.3-10.6-6.6-14.2-14.5c-3.3-7.3-5.5-16-6-22.1c-0.1-1.4-0.1-2.6-0.1-3.8c0.4-7.2,3.5-13.6,8-17.7
		c2.4-2.2,5.3-3.8,8.3-4.4c3.1-0.6,6.4-0.2,9.6,1.5c4.7,2.5,9.2,7.8,12.6,16.8c3.2,8.8,6.9,13.9,12.2,17c5.4,3.1,12.6,4.2,22.8,4.6
		c10.2-0.4,17.4-1.5,22.8-4.6c5.2-3,8.9-8.2,12.2-17c3.4-9.1,7.8-14.4,12.6-16.8c3.2-1.7,6.5-2.1,9.6-1.5c3,0.6,5.9,2.1,8.3,4.4
		c4.4,4.1,7.6,10.5,8,17.7c0.1,1.1,0,2.4-0.1,3.8c-0.5,6.1-2.8,14.8-6,22.1c-3.5,7.9-8.5,14.2-14.2,14.5c-0.4,0-0.8,0-1.2,0
		c-4.4-0.4-6.1-4.5-7.9-8.7c-1.2-2.8-2.5-5.7-3.9-5.4c-3.1,1.7-4.3,8.1-5.4,14.3c-0.5,2.6-1,5.2-1.6,7.6
		C379.4,404.5,377.1,411.2,372.3,416.3L372.3,416.3z"/>
</g>
</svg>
