<?xml version="1.0" encoding="utf-8"?>
<!-- Generator: Adobe Illustrator 24.0.1, SVG Export Plug-In . SVG Version: 6.00 Build 0)  -->
<svg version="1.1" id="Layer_1" xmlns="http://www.w3.org/2000/svg" xmlns:xlink="http://www.w3.org/1999/xlink" x="0px" y="0px"
	 viewBox="0 0 700 700" style="enable-background:new 0 0 700 700;" xml:space="preserve">
<style type="text/css">
	.st0{fill:#FFFFFF;}
</style>
<g>
	<path class="st0" d="M266,422.8h-33.6v-65.3c0-24-12.1-45.4-30.4-57.8c18.3-12,30.4-32.6,30.4-56.1c0-37.1-30.1-67.2-67.2-67.2
		S98,206.5,98,243.6c0,23.4,12,44,30.1,56c-3.1,2.1-6.1,4.4-8.9,6.9C105.7,319.2,98,337.1,98,355.6v145.6c0,6.2,5,11.2,11.2,11.2
		H210v78.4c0,6.2,5,11.2,11.2,11.2h67.2c6.2,0,11.2-5,11.2-11.2V456.4C299.6,437.9,284.5,422.8,266,422.8L266,422.8z M165.2,198.8
		c24.7,0,44.8,20.1,44.8,44.8s-20.1,44.8-44.8,44.8s-44.8-20.1-44.8-44.8C120.4,218.9,140.5,198.8,165.2,198.8z M277.2,579.6h-44.8
		v-78.4c0-6.2-5-11.2-11.2-11.2H120.4V355.6c0-12.5,5-24.1,14.2-32.7c9.1-8.6,21.2-12.8,33.7-12c23.5,1.5,41.8,22,41.8,46.6V434
		c0,6.2,5,11.2,11.2,11.2H266c6.2,0,11.2,5,11.2,11.2V579.6z M571.9,299.6c18.1-12,30.1-32.6,30.1-56c0-37.1-30.1-67.2-67.2-67.2
		s-67.2,30.1-67.2,67.2c0,23.5,12.1,44.1,30.4,56.2c-18.3,12.4-30.4,33.7-30.4,57.7v65.3H434c-18.5,0-33.6,15.1-33.6,33.6v134.4
		c0,6.2,5,11.2,11.2,11.2h67.2c6.2,0,11.2-5,11.2-11.2v-78.4h100.8c6.2,0,11.2-5,11.2-11.2V355.6c0-18.5-7.7-36.4-21.2-49.1
		C578,304,575,301.7,571.9,299.6L571.9,299.6z M534.8,198.8c24.7,0,44.8,20.1,44.8,44.8s-20.1,44.8-44.8,44.8S490,268.3,490,243.6
		S510.1,198.8,534.8,198.8z M579.6,490H478.8c-6.2,0-11.2,5-11.2,11.2v78.4h-44.8V456.4c0-6.2,5-11.2,11.2-11.2h44.8
		c6.2,0,11.2-5,11.2-11.2v-76.5c0-24.6,18.4-45.1,41.8-46.6c12.5-0.8,24.5,3.5,33.7,12c9.1,8.6,14.2,20.2,14.2,32.7L579.6,490z
		 M439.6,198.8v-67.2c0-18.5-15.1-33.6-33.6-33.6H294c-18.5,0-33.6,15.1-33.6,33.6v67.2c0,18.5,15.1,33.6,33.6,33.6h21.8l24.7,39.5
		c2.1,3.2,5.7,5.3,9.5,5.3s7.4-2,9.5-5.3l24.7-39.5H406C424.5,232.4,439.6,217.3,439.6,198.8L439.6,198.8z M378,210
		c-3.9,0-7.4,2-9.5,5.3L350,244.9l-18.5-29.6c-2.1-3.2-5.7-5.3-9.5-5.3h-28c-6.2,0-11.2-5-11.2-11.2v-67.2c0-6.2,5-11.2,11.2-11.2
		h112c6.2,0,11.2,5,11.2,11.2v67.2c0,6.2-5,11.2-11.2,11.2L378,210z"/>
</g>
</svg>
