<?xml version="1.0" encoding="utf-8"?>
<!-- Generator: Adobe Illustrator 24.0.1, SVG Export Plug-In . SVG Version: 6.00 Build 0)  -->
<svg version="1.1" id="Layer_1" xmlns="http://www.w3.org/2000/svg" xmlns:xlink="http://www.w3.org/1999/xlink" x="0px" y="0px"
	 viewBox="0 0 700 700" style="enable-background:new 0 0 700 700;" xml:space="preserve">
<style type="text/css">
	.st0{fill:#FFFFFF;}
</style>
<g>
	<path class="st0" d="M596.1,271.4c-17.9-1.4-35.8-1.1-53.6,0.8v-18.4c0-13.9-4.1-27.6-11.9-39.1c-7.8-11.6-18.9-20.5-31.8-25.7
		v-5.2c0-5.4-1.7-10.7-4.8-15.1c-3.1-4.4-7.6-7.8-12.7-9.6v-10.3c0-4.8-3.9-8.8-8.8-8.8s-8.8,3.9-8.8,8.8v10.4
		c-5.1,1.8-9.5,5.1-12.7,9.6c-3.1,4.4-4.8,9.7-4.8,15.1v5.3c-12.9,5.1-24,14.1-31.8,25.6s-12,25.2-11.9,39.1V297
		c-12.6,3.1-25.2,6.4-37.3,9.8C343,313,320.3,318,297.5,322v-24.3c0-13.9-4.1-27.6-11.9-39.1c-7.8-11.6-18.9-20.5-31.8-25.7v-5.2
		c0-5.4-1.7-10.7-4.8-15.1c-3.1-4.4-7.6-7.8-12.7-9.6v-10.3c0-4.8-3.9-8.8-8.8-8.8s-8.8,3.9-8.8,8.8v10.4c-5.1,1.8-9.5,5.1-12.7,9.6
		c-3.1,4.4-4.8,9.7-4.8,15.1v5.3c-12.9,5.1-24,14.1-31.8,25.6s-12,25.2-11.9,39.1v33c-16.9-0.8-33.8-3-50.4-6.5
		c-2.6-0.6-5.4-0.1-7.5,1.6s-3.4,4.2-3.4,6.9v262.5c0,2.3,0.9,4.5,2.6,6.2s3.9,2.6,6.2,2.6h490c2.3,0,4.5-0.9,6.2-2.6
		s2.6-3.9,2.6-6.2v-315C603.8,275.6,600.5,271.9,596.1,271.4L596.1,271.4z M463.7,183.8c0-4.8,3.9-8.8,8.8-8.8c2.4,0,4.6,1,6.2,2.7
		c1.6,1.6,2.5,3.8,2.5,6.1v0.5c-5.8-0.7-11.7-0.7-17.5,0V183.8z M420,253.8c-0.1-11.3,3.6-22.4,10.3-31.4
		c6.8-9.1,16.3-15.7,27.2-18.9c7.3-2.2,15-2.7,22.6-1.6c12.5,1.8,23.9,8.1,32.1,17.6s12.8,21.7,12.8,34.3v70H420V253.8z
		 M218.7,227.6c0-4.8,3.9-8.8,8.8-8.8c2.4,0,4.6,1,6.2,2.7c1.6,1.6,2.5,3.8,2.5,6.1v0.5c-5.8-0.7-11.7-0.7-17.5,0V227.6z M175,297.6
		c-0.1-11.3,3.6-22.4,10.3-31.4c6.8-9.1,16.3-15.7,27.2-18.9c7.3-2.2,15-2.7,22.6-1.6c12.5,1.8,23.9,8.1,32.1,17.6
		S280,285,280,297.6v70H175V297.6z M586.2,586.3H113.7V343.2c14.5,2.4,29.1,4.1,43.8,4.9v19.4c-4.8,0-8.8,3.9-8.8,8.8
		s3.9,8.8,8.8,8.8h140c4.8,0,8.8-3.9,8.8-8.8s-3.9-8.8-8.8-8.8v-27.9c24.4-4.2,48.5-9.6,72.4-16.2c10.7-3,21.6-5.9,32.6-8.6v9
		c-4.8,0-8.8,3.9-8.8,8.8s3.9,8.8,8.8,8.8h140c4.8,0,8.8-3.9,8.8-8.8s-3.9-8.8-8.8-8.8v-34.1c14.5-1.4,29.2-1.9,43.8-1.5
		L586.2,586.3L586.2,586.3z"/>
	<path class="st0" d="M420,533.8v-70c0-13.9-4.1-27.6-11.9-39.1c-7.8-11.6-18.9-20.5-31.8-25.7v-5.2c0-5.4-1.7-10.7-4.8-15.1
		c-3.1-4.4-7.6-7.8-12.7-9.6v-10.3c0-4.8-3.9-8.8-8.8-8.8s-8.8,3.9-8.8,8.8v10.4c-5.1,1.8-9.5,5.1-12.7,9.6
		c-3.1,4.4-4.8,9.7-4.8,15.1v5.3c-12.9,5.1-24,14.1-31.8,25.6s-12,25.2-11.9,39.1v70c-4.8,0-8.8,3.9-8.8,8.8c0,4.8,3.9,8.8,8.8,8.8
		h140c4.8,0,8.8-3.9,8.8-8.8C428.7,537.7,424.8,533.8,420,533.8L420,533.8z M341.2,393.8c0-4.8,3.9-8.8,8.8-8.8c2.4,0,4.6,1,6.2,2.7
		c1.6,1.6,2.5,3.8,2.5,6.1v0.5c-5.8-0.7-11.7-0.7-17.5,0V393.8z M297.5,533.8v-70c-0.1-11.3,3.6-22.4,10.3-31.4
		c6.8-9.1,16.3-15.7,27.2-18.9c7.3-2.2,15-2.7,22.6-1.6c12.5,1.8,23.9,8.1,32.1,17.6s12.8,21.7,12.8,34.3v70H297.5z"/>
	<path class="st0" d="M127.6,193.6c0,7.9,3.1,15.5,8.8,21.1c3.4,3.3,8.9,3.3,12.3-0.1c3.4-3.4,3.4-8.8,0.1-12.3
		c-4.8-4.8-4.8-12.7,0-17.5c5.6-5.6,8.8-13.2,8.8-21.1c0-7.9-3.1-15.5-8.8-21.1c-1.6-1.7-3.9-2.6-6.2-2.7c-2.3,0-4.6,0.9-6.3,2.6
		c-1.7,1.7-2.6,3.9-2.6,6.3c0,2.3,1,4.6,2.7,6.2c2.3,2.3,3.6,5.5,3.6,8.8s-1.3,6.4-3.6,8.8C130.8,178.1,127.6,185.7,127.6,193.6
		L127.6,193.6z"/>
	<path class="st0" d="M232.6,149.9c0,7.9,3.1,15.5,8.8,21.1c3.4,3.3,8.9,3.3,12.3-0.1c3.4-3.4,3.4-8.8,0.1-12.3
		c-4.8-4.8-4.8-12.7,0-17.5c5.6-5.6,8.8-13.2,8.8-21.1s-3.1-15.5-8.8-21.1c-1.6-1.7-3.9-2.6-6.2-2.7c-2.3,0-4.6,0.9-6.3,2.6
		s-2.6,3.9-2.6,6.3c0,2.3,1,4.6,2.7,6.2c2.3,2.3,3.6,5.5,3.6,8.8s-1.3,6.4-3.6,8.8C235.8,134.3,232.6,141.9,232.6,149.9L232.6,149.9
		z"/>
	<path class="st0" d="M320.1,228.6c0,7.9,3.1,15.5,8.8,21.1c3.4,3.3,8.9,3.3,12.3-0.1s3.4-8.8,0.1-12.3c-4.8-4.8-4.8-12.7,0-17.5
		c5.6-5.6,8.8-13.2,8.8-21.1s-3.1-15.5-8.8-21.1c-1.6-1.7-3.9-2.6-6.2-2.7c-2.3,0-4.6,0.9-6.3,2.6c-1.7,1.7-2.6,3.9-2.6,6.3
		c0,2.3,1,4.6,2.7,6.2c2.3,2.3,3.6,5.5,3.6,8.8s-1.3,6.4-3.6,8.8C323.3,213.1,320.1,220.7,320.1,228.6L320.1,228.6z"/>
	<path class="st0" d="M407.6,149.9c0,7.9,3.1,15.5,8.8,21.1c3.4,3.3,8.9,3.3,12.3-0.1s3.4-8.8,0.1-12.3c-4.8-4.8-4.8-12.7,0-17.5
		c5.6-5.6,8.8-13.2,8.8-21.1s-3.1-15.5-8.8-21.1c-1.6-1.7-3.9-2.6-6.2-2.7c-2.3,0-4.6,0.9-6.3,2.6c-1.7,1.7-2.6,3.9-2.6,6.3
		c0,2.3,1,4.6,2.7,6.2c2.3,2.3,3.6,5.5,3.6,8.8s-1.3,6.4-3.6,8.8C410.8,134.3,407.6,141.9,407.6,149.9L407.6,149.9z"/>
	<path class="st0" d="M547.6,193.6c0,7.9,3.1,15.5,8.8,21.1c3.4,3.3,8.9,3.3,12.3-0.1s3.4-8.8,0.1-12.3c-4.8-4.8-4.8-12.7,0-17.5
		c5.6-5.6,8.8-13.2,8.8-21.1c0-7.9-3.1-15.5-8.8-21.1c-1.6-1.7-3.9-2.6-6.2-2.7c-2.3,0-4.6,0.9-6.3,2.6c-1.7,1.7-2.6,3.9-2.6,6.3
		c0,2.3,1,4.6,2.7,6.2c2.3,2.3,3.6,5.5,3.6,8.8s-1.3,6.4-3.6,8.8C550.8,178.1,547.6,185.7,547.6,193.6L547.6,193.6z"/>
</g>
</svg>
