<?xml version="1.0" encoding="utf-8"?>
<!-- Generator: Adobe Illustrator 24.0.1, SVG Export Plug-In . SVG Version: 6.00 Build 0)  -->
<svg version="1.1" id="Layer_1" xmlns="http://www.w3.org/2000/svg" xmlns:xlink="http://www.w3.org/1999/xlink" x="0px" y="0px"
	 viewBox="0 0 700 700" style="enable-background:new 0 0 700 700;" xml:space="preserve">
<style type="text/css">
	.st0{fill:#FFFFFF;}
</style>
<g>
	<path class="st0" d="M400.6,126c-15.4,0-28,12.6-28,28s12.6,28,28,28s28-12.6,28-28S416,126,400.6,126z M400.6,137.2
		c9.3,0,16.8,7.5,16.8,16.8s-7.4,16.8-16.8,16.8c-9.3,0-16.8-7.5-16.8-16.8S391.3,137.2,400.6,137.2z M327.9,142.8
		c-12.3,0-22.4,10.1-22.4,22.4c0,12.3,10.1,22.4,22.4,22.4s22.4-10.1,22.4-22.4C350.3,152.9,340.2,142.8,327.9,142.8z M495.7,142.8
		c-12.3,0-22.4,10.1-22.4,22.4c0,12.3,10.1,22.4,22.4,22.4s22.4-10.1,22.4-22.4C518,152.9,507.9,142.8,495.7,142.8z M188.1,154
		c-12.3,0-22.4,10.1-22.4,22.4c0,12.3,10.1,22.4,22.4,22.4c12.3,0,22.4-10.1,22.4-22.4S200.4,154,188.1,154z M327.9,154
		c6.2,0,11.2,4.9,11.2,11.2s-4.9,11.2-11.2,11.2c-6.2,0-11.2-4.9-11.2-11.2C316.7,158.9,321.7,154,327.9,154z M495.7,154
		c6.2,0,11.2,4.9,11.2,11.2s-4.9,11.2-11.2,11.2s-11.2-4.9-11.2-11.2S489.4,154,495.7,154z M188.1,165.2c6.2,0,11.2,4.9,11.2,11.2
		c0,6.2-4.9,11.2-11.2,11.2c-6.2,0-11.2-4.9-11.2-11.2C176.9,170.1,181.9,165.2,188.1,165.2z M260.8,165.2
		c-12.3,0-22.4,10.1-22.4,22.4c0,12.3,10.1,22.4,22.4,22.4s22.4-10.1,22.4-22.4C283.2,175.3,273.1,165.2,260.8,165.2z M260.8,176.4
		c6.2,0,11.2,4.9,11.2,11.2s-4.9,11.2-11.2,11.2c-6.2,0-11.2-4.9-11.2-11.2C249.6,181.3,254.6,176.4,260.8,176.4z M445.3,187.6
		c-15.4,0-28,12.6-28,28s12.6,28,28,28s28-12.6,28-28S460.7,187.6,445.3,187.6z M445.3,198.8c9.3,0,16.8,7.5,16.8,16.8
		s-7.4,16.8-16.8,16.8s-16.8-7.5-16.8-16.8S436,198.8,445.3,198.8z M316.7,210c-12.3,0-22.4,10.1-22.4,22.4
		c0,12.3,10.1,22.4,22.4,22.4s22.4-10.1,22.4-22.4S329,210,316.7,210z M316.7,221.2c6.2,0,11.2,4.9,11.2,11.2s-4.9,11.2-11.2,11.2
		c-6.2,0-11.2-4.9-11.2-11.2C305.5,226.1,310.5,221.2,316.7,221.2z M165.2,232.9c0.3,2.9,3.2,5.4,6.1,5.1h11.2v302.4
		c0,6.9,3.5,14.6,10,21.3c6.5,6.8,16.4,12.2,29.2,12.2s22.7-5.5,29.2-12.2c6.5-6.8,10-14.5,10-21.3V238H272c3,0.1,5.7-2.6,5.7-5.6
		s-2.7-5.6-5.7-5.6H171.3C167.4,226.8,165.3,228.4,165.2,232.9L165.2,232.9z M193.7,238h55.9v44.8h-55.9L193.7,238L193.7,238z
		 M344.2,255.3c0.3,2.9,3.2,5.4,6.1,5.1h11.2V339c-42.7,19.3-72.7,61.9-72.7,111.8c0,68,55.1,123.2,123,123.2s123-55.2,123-123.2
		c0-49.9-30-92.5-72.7-111.8v-78.6h11.2c3,0.1,5.7-2.6,5.7-5.6s-2.7-5.6-5.7-5.6h-123C346.4,249.1,344.4,251.2,344.2,255.3
		L344.2,255.3z M372.6,260.4h78.3v22.4h-28V294h28v22.4h-28v11.2h28V342c0,2.2,1.4,4.4,3.5,5.2c26.8,11.1,48.4,32.2,59.9,58.8H309.2
		c11.6-26.6,33.1-47.7,59.9-58.8c2.1-0.8,3.5-3,3.5-5.2V260.4z M193.7,294h55.9v246.4c-3.3,13.8-15.9,22.2-28,22.4
		c-14.7-1.4-24.2-8.4-28-22.4v-67.2h28V462h-28v-22.4h28v-11.2h-28V406h28v-11.2h-28v-22.4h28v-11.2h-28v-22.4h28v-11.2h-28
		L193.7,294L193.7,294z M305,417.2h213.5c3.3,10.6,5.1,21.9,5.1,33.6c0,61.9-50,112-111.8,112S300,512.7,300,450.8
		C299.9,439.1,301.7,427.8,305,417.2L305,417.2z"/>
</g>
</svg>
