<?xml version="1.0" encoding="utf-8"?>
<!-- Generator: Adobe Illustrator 24.0.1, SVG Export Plug-In . SVG Version: 6.00 Build 0)  -->
<svg version="1.1" id="Layer_1" xmlns="http://www.w3.org/2000/svg" xmlns:xlink="http://www.w3.org/1999/xlink" x="0px" y="0px"
	 viewBox="0 0 700 700" style="enable-background:new 0 0 700 700;" xml:space="preserve">
<style type="text/css">
	.st0{fill:#FFFFFF;}
</style>
<g>
	<path class="st0" d="M320.6,359.5H178.3c-4.5,0-8.4,3.9-8.4,8.4v174.2c0,4.5,3.9,8.4,8.4,8.4h142.8c4.5,0,8.4-3.9,8.4-8.4V367.9
		C329,363.4,325.6,359.5,320.6,359.5L320.6,359.5z M312.2,533.7H186.7V376.3h126v157.4L312.2,533.7L312.2,533.7z"/>
	<path class="st0" d="M244.4,490.6c1.7,1.7,3.9,2.8,6.2,2.8s4.5-0.6,5.6-2.2c3.4-3.4,3.4-8.4,0-11.8l-27.4-28
		c-3.4-3.4-8.4-3.4-11.8,0c-3.4,3.4-3.4,8.4,0,11.8L244.4,490.6z"/>
	<path class="st0" d="M277.4,480.5c1.7,1.7,3.9,2.8,6.2,2.8c2.2,0,3.9-0.6,5.6-2.2c3.4-3.4,3.4-8.4,0.6-11.8l-45.9-48.7
		c-3.4-3.4-8.4-3.4-11.8-0.6c-3.4,3.4-3.4,8.4-0.6,11.8L277.4,480.5z"/>
	<path class="st0" d="M598.4,115.4H433.2c-21.8-24.1-52.6-39.2-87.4-39.2c-34.7,0-66.1,15.7-87.9,39.2H101.6c-4.5,0-8.4,3.9-8.4,8.4
		v127.1c0,5,3.9,9,8.4,9h28v355.6c0,4.5,3.9,8.4,8.4,8.4h235.8h135h47.6c4.5,0,8.4-3.9,8.4-8.4V259.8h33.6c4.5,0,8.4-3.9,8.4-8.4
		V123.8C606.8,119.3,602.8,115.4,598.4,115.4L598.4,115.4z M345.8,93.5c56,0,101.4,45.4,101.4,101.4s-45.4,101.4-101.4,101.4
		s-101.4-45.4-101.4-101.4C243.9,138.9,289.8,93.5,345.8,93.5z M110,132.2h135c-11.2,17.9-17.9,39.8-17.9,62.2
		c0,17.4,3.9,33.6,10.1,48.2H110V132.2z M500.4,483.3H382.8v-18.5h117.6V483.3z M500.4,448H382.8v-71.7h117.6V448z M382.2,500.1
		h117.6v106.4H382.2V500.1z M548,606.5h-30.8V367.9c0-4.5-3.9-8.4-8.4-8.4H374.4c-4.5,0-8.4,3.9-8.4,8.4v238.6H147V259.8h100.2
		c21.3,31.9,57.7,53.2,98.6,53.2s77.3-21.3,98.6-53.2H548V606.5z M590,243H453.3c6.7-14.6,10.1-30.8,10.1-48.2
		c0-23-6.7-44.2-17.9-62.2h143.9V243H590z"/>
	<path class="st0" d="M291.2,227.7h26.2v26.2c0,4.4,3.8,8.2,8.2,8.2h44.8c4.4,0,8.2-3.8,8.2-8.2v-26.2h26.2c4.4,0,8.2-3.8,8.2-8.2
		v-44.8c0-4.4-3.8-8.2-8.2-8.2h-26.2v-26.2c0-4.4-3.8-8.2-8.2-8.2h-44.8c-4.4,0-8.2,3.8-8.2,8.2v26.2h-26.2c-4.4,0-8.2,3.8-8.2,8.2
		v44.8C283,223.9,286.3,227.7,291.2,227.7L291.2,227.7z M299.4,182.9h26.2c4.4,0,8.2-3.8,8.2-8.2v-26.2h28.4v26.2
		c0,4.4,3.8,8.2,8.2,8.2h26.2v27.8h-26.2c-4.4,0-8.2,3.8-8.2,8.2v26.2h-28.4V219c0-4.4-3.8-8.2-8.2-8.2h-26.2V182.9z"/>
</g>
</svg>
