<?xml version="1.0" encoding="utf-8"?>
<!-- Generator: Adobe Illustrator 24.0.1, SVG Export Plug-In . SVG Version: 6.00 Build 0)  -->
<svg version="1.1" id="Layer_1" xmlns="http://www.w3.org/2000/svg" xmlns:xlink="http://www.w3.org/1999/xlink" x="0px" y="0px"
	 viewBox="0 0 700 700" style="enable-background:new 0 0 700 700;" xml:space="preserve">
<style type="text/css">
	.st0{fill:#FFFFFF;}
</style>
<g>
	<path class="st0" d="M358.8,166.2v-43.8c10.6-8,17.5-20.7,17.5-35c0-4.8-3.9-8.8-8.8-8.8h-105c-4.8,0-8.7,3.9-8.7,8.8v78.8
		c0,29,23.5,52.5,52.5,52.5S358.8,195.2,358.8,166.2z M271.3,96.2h86c-3.6,10.2-13.3,17.5-24.8,17.5h-35c-4.8,0-8.8,3.9-8.8,8.8V140
		c0,11.4-7.3,21.1-17.5,24.8L271.3,96.2L271.3,96.2z M341.3,166.2c0,19.3-15.7,35-35,35c-13.7,0-25.5-7.9-31.3-19.3
		c18.1-5.4,31.3-22.1,31.3-41.9v-8.8h26.2c3,0,5.9-0.3,8.8-0.9V166.2z"/>
	<path class="st0" d="M612.5,568.8h-8.8V437.5c0-38.6-31.4-70-70-70H432.4l-73.6-73.6v-31.4c0-24.1-19.6-43.8-43.8-43.8h-52.5
		c-4.8,0-8.8,3.9-8.8,8.8v140h-87.5c-38.6,0-70,31.4-70,70v131.2h-8.8c-4.8,0-8.8,3.9-8.8,8.8v35c0,4.8,3.9,8.8,8.8,8.8h70
		c4.8,0,8.8-3.9,8.8-8.8v-35c0-4.8-3.9-8.8-8.8-8.8h-8.8V446.2c0-14.5,11.8-26.2,26.2-26.2h78.8v192.5c0,4.8,3.9,8.8,8.8,8.8h70
		c4.8,0,8.8-3.9,8.8-8.8V595c0-11.4-7.3-21-17.5-24.6V455h35v78.8c0,4.8,3.9,8.8,8.8,8.8h70c4.8,0,8.8-3.9,8.8-8.8v-17.5
		c0-11.4-7.3-21-17.5-24.6v-62.9c0-3-0.4-5.9-1-8.8H525c14.5,0,26.2,11.8,26.2,26.2v122.5h-8.8c-4.8,0-8.8,3.9-8.8,8.8v35
		c0,4.8,3.9,8.8,8.8,8.8h70c4.8,0,8.8-3.9,8.8-8.8v-35C621.2,572.7,617.3,568.7,612.5,568.8L612.5,568.8z M402.5,362.4l13.9,13.9
		l-13.9,13.9l-13.9-13.9L402.5,362.4z M376.3,363.9L300.4,288c-1.9-1.9-2.9-4.3-2.9-6.9c0-5.4,4.4-9.8,9.8-9.8
		c2.6,0,5.1,1.1,6.9,2.9l75.9,75.9L376.3,363.9z M271.3,236.2H315c14.5,0,26.2,11.8,26.2,26.2v13.9l-14.6-14.6
		c-5.1-5.1-12.1-8-19.3-8c-15.1,0-27.3,12.2-27.3,27.3c0,7.3,2.8,14.2,8,19.3l67.1,67.1h-83.9L271.3,236.2z M148.8,603.7H96.3v-17.5
		h52.5V603.7z M131.3,446.2v122.5h-17.5V437.5c0-29,23.5-52.5,52.5-52.5h206.4l17.5,17.5H175C150.9,402.5,131.3,422.1,131.3,446.2z
		 M306.3,420v148.8h-35V420H306.3z M323.8,603.7h-52.5v-17.5H315c4.8,0,8.8,3.9,8.8,8.8V603.7z M428.8,525h-52.5v-17.5H420
		c4.8,0,8.8,3.9,8.8,8.8V525z M411.3,428.7V490h-35v-43.8c0-4.8-3.9-8.8-8.8-8.8h-43.8V420h85.8
		C410.6,422.8,411.3,425.7,411.3,428.7L411.3,428.7z M525,402.5H414.9l17.5-17.5h101.4c29,0,52.5,23.5,52.5,52.5v131.2h-17.5V446.2
		C568.8,422.1,549.1,402.5,525,402.5z M603.8,603.7h-52.5v-17.5h52.5V603.7z"/>
</g>
</svg>
