<?xml version="1.0" encoding="utf-8"?>
<!-- Generator: Adobe Illustrator 24.0.1, SVG Export Plug-In . SVG Version: 6.00 Build 0)  -->
<svg version="1.1" id="Layer_1" xmlns="http://www.w3.org/2000/svg" xmlns:xlink="http://www.w3.org/1999/xlink" x="0px" y="0px"
	 viewBox="0 0 700 700" style="enable-background:new 0 0 700 700;" xml:space="preserve">
<style type="text/css">
	.st0{fill:#FFFFFF;}
</style>
<g>
	<path class="st0" d="M589.4,537.4L498.9,443l12.9-129.2c0-0.3,0-0.7,0-1l-9.5-76.4l10.1-34.5c2.3-7.8,0.8-16.2-4.1-22.6
		c-4.9-6.5-12.5-10.3-20.6-10.3h-45.9v-18.2c5.2-1.9,8.7-6.8,8.8-12.4V117c0-4.8-1.8-9.5-5-13.1s-7.7-5.8-12.5-6.3l-38.9-4
		c-1.2-0.1-2.5,0.3-3.4,1.1c-0.9,0.8-1.4,2-1.4,3.2v17.3c0,4,1.3,7.9,3.6,11.1c2.4,3.2,5.7,5.6,9.5,6.8V147c0,3.9,1.3,7.6,3.7,10.7
		c2.4,3.1,5.7,5.2,9.4,6.2v5h-47.2c-0.4,0-0.7,0-1.1,0l0,0c-5.2,0.2-10.1,2-14.3,5.1c-4.1,3.1-7.3,7.4-8.9,12.3L328,233.7l0,0
		l-7.9,23.1l-104.7,15.4c-8.7,1.3-16.4,6.4-20.9,13.9L181,308.6c0,0.1-0.1,0.2-0.1,0.2h-33.2c-5.6,0-10.9,2.1-15,5.9
		s-6.5,9-6.8,14.6l-16.5,272.3c-0.1,2.4,1.7,4.5,4.1,4.6c0.1,0,0.2,0,0.3,0c2.3,0,4.2-1.8,4.4-4.1l3.5-57.1h96.2l-3.4,56.6
		c-0.1,2.4,1.7,4.5,4.1,4.6c0.1,0,0.2,0,0.3,0c2.3,0,4.2-1.8,4.4-4.1l3.5-57.1h45.6l3.5,57.1c0.1,2.3,2.1,4.1,4.4,4.1
		c0.1,0,0.2,0,0.3,0c2.4-0.1,4.2-2.2,4.1-4.6l-3.4-56.6h78.4l11.7,37.6l-23.5,15.7l0,0c-1.6,1.1-2.3,3.1-1.8,4.9
		c0.6,1.8,2.3,3.1,4.2,3.1h87.5c1.2,0,2.3-0.5,3.1-1.3s1.3-1.9,1.3-3.1c0-12.1-1.9-24-5.8-35.5l-37.7-113.1l29.7-74.5h13.1
		l-8.6,60.6c-1.9,13.8,2.2,27.7,11.3,38.2l81.8,94.6l-5.9,28.8c-0.4,1.9,0.5,3.8,2.2,4.7s3.8,0.6,5.2-0.7l62.1-61.7
		C591,541.8,591.1,539.1,589.4,537.4L589.4,537.4z M502.5,308.9h-96.9l55.8-8.8c6.9-1.1,13.4-4.2,18.7-8.8s9.2-10.7,11.2-17.4
		l4.8-16.4L502.5,308.9z M372.9,329.5c-0.3-5.4-2.7-10.5-6.6-14.3l14.2-2.2l-7.5,18.6L372.9,329.5z M286.3,308.9l15.5-2.4l-1.3,2.2
		c0,0.1-0.1,0.2-0.1,0.2L286.3,308.9z M307.5,314.2v-0.1l0,0c0.1-0.3,0.2-0.6,0.4-0.9l6.2-10.3l7.3-12.3l0,0
		c3.2-5.3,8.6-8.9,14.7-9.8l32.5-4.8c0.1,0,0.1,0,0.2,0l74.7-11l0,0c1.6-0.2,3-1.4,3.5-2.9l7.2-21.2l33.9,12.9l-5.1,17.5
		c-1.5,5.2-4.5,9.8-8.5,13.3c-4,3.6-9,5.9-14.3,6.7L349.3,309c-0.9,0.1-1.8,0.6-2.4,1.2l-6.6,6.6l0,0c-0.6,0.6-1.3,0.9-2.1,0.9
		h-27.8c-1.1,0-2.1-0.6-2.6-1.5C307.5,315.6,307.4,314.9,307.5,314.2L307.5,314.2z M374.5,265l0.2,1.4l-0.6,0.1L374.5,265z
		 M398.1,115.2v-12.4l34.1,3.5c5.5,0.5,9.7,5.2,9.7,10.7v8.9c-2.7-1-5.7-1-8.5-0.1c-0.2-0.8-0.3-1.6-0.3-2.4v-2c0-1.5-0.8-2.9-2-3.7
		c-1.3-0.8-2.8-0.9-4.2-0.3l-14.6,6.8c-1.3,0.6-2.7,0.9-4.2,0.9C402.6,125.2,398.1,120.7,398.1,115.2L398.1,115.2z M411.2,147v-13.3
		c1.6-0.3,3.2-0.8,4.7-1.4l9-4.2c0.6,2.3,1.6,4.5,3,6.5c0.7,1,1.9,1.7,3.1,1.8c1.3,0.1,2.5-0.3,3.4-1.2c1-1,2.5-1.4,3.9-1.1
		c1.4,0.3,2.6,1.3,3.1,2.6s0.4,2.9-0.4,4.1c-0.8,1.2-2.2,1.9-3.6,1.9c-2.4,0-4.4,2-4.4,4.4v35c0,2.4-2,4.4-4.4,4.4s-4.4-2-4.4-4.4
		v-18c0.3-0.1,0.6-0.1,0.9-0.2l0,0c2.3-0.6,3.8-3,3.2-5.3c-0.6-2.3-3-3.8-5.3-3.2c-1,0.3-2.1,0.4-3.1,0.4
		C415.2,155.7,411.3,151.8,411.2,147L411.2,147z M352.4,189.2L352.4,189.2c1.1-3.2,3.2-6,5.9-8.1c2.7-2,6-3.2,9.4-3.4
		c0.3,0,0.5,0,0.8,0h47.2v4.4c0,7.2,5.9,13.1,13.1,13.1s13.1-5.9,13.1-13.1v-4.4h45.9c4.5,0,8.8,1.8,12,4.9c3.2,3.2,5,7.5,5,12
		c0,1.6-0.2,3.2-0.7,4.8l-13.5,46.1L457,232.7l7.8-23c0.8-2.3-0.4-4.8-2.7-5.6c-2.3-0.8-4.8,0.4-5.6,2.7l-17,50l-56.1,8.2l-2.8-22
		v-0.1l-3.3-26.5c-0.3-2.4-2.5-4.1-4.9-3.8s-4.1,2.5-3.8,4.9l3.2,25.6l-0.7,2.3l-33.6-12.8L352.4,189.2z M202.1,290.7
		c3.2-5.3,8.5-8.9,14.6-9.8L324,265.1l0,0c1.6-0.2,3-1.4,3.5-2.9l7.2-21.2l33.9,12.9l-4.1,14l-29.8,4.4l0,0
		c-8.7,1.3-16.4,6.4-20.9,13.9l-6.3,10.5L230,309c-0.9,0.1-1.8,0.6-2.4,1.2l-6.6,6.6c-0.6,0.6-1.3,0.9-2.1,0.9h-27.8
		c-1.1,0-2.1-0.6-2.6-1.5c-0.3-0.6-0.5-1.3-0.3-2c0.1-0.3,0.2-0.7,0.4-1L202.1,290.7z M134.6,330c0.4-6.9,6.2-12.3,13.1-12.3h32
		c0.3,1,0.6,1.9,1.1,2.8c2.1,3.7,6,6,10.2,5.9h27.8c3.1,0,6.1-1.2,8.3-3.4l5.6-5.6l3.1-0.5c-3,3.6-4.7,8-5,12.6l-3,49.4h-96.2
		L134.6,330z M223.1,457.7h-96.2l4.2-70h96.2L223.1,457.7z M122.1,536.4l4.2-70h96.2l-4.2,70H122.1z M227.1,536.4L239.6,330
		c0.4-5.6,4.3-10.4,9.8-11.9c5.5,1.4,9.4,6.2,9.8,11.9l12.5,206.4H227.1z M280.4,536.4l-12.5-206.9c-0.3-4.3-1.8-8.4-4.4-11.8h35.6
		c0.3,1,0.6,1.9,1.1,2.8c2.1,3.7,6,6,10.2,5.9h27.8c3.1,0,6.1-1.2,8.3-3.4l5.3-5.3l0,0c6.6,0.4,11.9,5.7,12.4,12.3l1.2,20.6
		l-31.2,77.9l0,0c-4.1,10.3-4.5,21.7-1.3,32.2l23.7,75.7H280.4z M366.6,371l10,165.4h-10.8l-24.5-78.3c-2.7-8.6-2.3-18,1-26.4
		L366.6,371z M377.2,545.2l2.1,34.3l-10.7-34.3H377.2z M377.6,588.9h2.2l0.5,8.8h-15.9L377.6,588.9z M531.3,588.8l3.1-15.5
		l28.1-27.9l0,0c1.7-1.7,1.7-4.5,0-6.2s-4.5-1.7-6.2,0l-25.7,25.6l-80.2-92.7l0,0c-7.4-8.6-10.8-20-9.2-31.3l9.3-65.6l0,0
		c0.2-1.3-0.2-2.5-1-3.5s-2-1.5-3.3-1.5h-21.1c-1.8,0-3.4,1.1-4.1,2.8l-31.4,78.8l0,0c-0.4,1-0.4,2-0.1,3l38.2,114.6l0,0
		c3.1,9.2,4.8,18.7,5.2,28.3H389l-0.5-8.8h27c2.4,0,4.4-2,4.4-4.4s-2-4.4-4.4-4.4h-27.6L374.2,352l13.7-34.3h114.7L490,444.1
		c-0.1,1.3,0.3,2.5,1.2,3.5l88.9,92.7L531.3,588.8z"/>
</g>
</svg>
