<?xml version="1.0" encoding="utf-8"?>
<!-- Generator: Adobe Illustrator 24.0.1, SVG Export Plug-In . SVG Version: 6.00 Build 0)  -->
<svg version="1.1" id="Layer_1" xmlns="http://www.w3.org/2000/svg" xmlns:xlink="http://www.w3.org/1999/xlink" x="0px" y="0px"
	 viewBox="0 0 700 700" style="enable-background:new 0 0 700 700;" xml:space="preserve">
<style type="text/css">
	.st0{fill:#FFFFFF;}
</style>
<g>
	<path class="st0" d="M603.7,453.3h-12.3v-16c0-11-4.4-21.5-12.2-29.2C571.5,400.4,561,396,550,396H224.2v-36.6
		c0-9.9-4-19.3-10.9-26.3c-7-7-16.4-10.9-26.3-10.9h-19.5v-21.7c0-4.6-3.8-8.4-8.4-8.4H96.3c-4.6,0-8.4,3.8-8.4,8.4v273.2
		c0,4.6,3.8,8.4,8.4,8.4h62.8c4.6,0,8.4-3.8,8.4-8.4V533h365v40.8c0,4.6,3.8,8.4,8.4,8.4h62.8c4.6,0,8.4-3.8,8.4-8.4v-112
		C612.1,457.1,608.3,453.3,603.7,453.3L603.7,453.3z M150.7,330.6v234.7h-46V308.9h46V330.6z M167.5,339H187c5.4,0,10.6,2.2,14.4,6
		c3.8,3.8,6,9,6,14.4V396h-39.9V339z M167.5,412.8H550c6.5,0,12.8,2.6,17.4,7.2c4.6,4.6,7.2,10.8,7.2,17.3v16H167.5V412.8z
		 M595.3,565.3h-46v-32.4h46V565.3z M595.3,516.1H167.5v-46h427.8V516.1z"/>
	<path class="st0" d="M349.4,117.9c-33.3,0-65.2,13.2-88.7,36.7S224,210,224,243.3s13.2,65.2,36.8,88.7
		c23.5,23.5,55.4,36.7,88.7,36.7s65.2-13.2,88.7-36.8c23.5-23.5,36.7-55.4,36.7-88.7c0-33.2-13.3-65.1-36.8-88.6
		C414.5,131.1,382.6,117.9,349.4,117.9L349.4,117.9z M349.4,351.9c-28.8,0-56.4-11.4-76.8-31.8c-20.4-20.4-31.8-48-31.8-76.8
		s11.4-56.4,31.8-76.8s48-31.8,76.8-31.8s56.4,11.4,76.8,31.8s31.8,48,31.8,76.8s-11.5,56.4-31.9,76.8
		C405.8,340.4,378.2,351.9,349.4,351.9L349.4,351.9z"/>
	<path class="st0" d="M417.6,214h-39.2v-39.2l0,0c0-4.6-3.8-8.4-8.4-8.4h-41.4c-4.6,0-8.4,3.8-8.4,8.4V214H281l0,0
		c-4.6,0-8.4,3.8-8.4,8.4v41.7c0,4.6,3.8,8.4,8.4,8.4h39.2v39.2c0,4.6,3.8,8.4,8.4,8.4h41.7c4.6,0,8.4-3.8,8.4-8.4v-39.2h39.2
		c4.6,0,8.4-3.8,8.4-8.4v-41.7c0-2.3-0.9-4.5-2.6-6C422.1,214.8,419.9,213.9,417.6,214L417.6,214z M409.2,255.7H370
		c-4.6,0-8.4,3.8-8.4,8.4v39.2H337v-39.2c0-4.6-3.8-8.4-8.4-8.4h-39.2v-24.9h39.2c4.6,0,8.4-3.8,8.4-8.4v-39.2h24.9v39.2l0,0
		c0,4.6,3.8,8.4,8.4,8.4h39.2L409.2,255.7z"/>
</g>
</svg>
